<svg version="1.1" id="Layer_1" xmlns="http://www.w3.org/2000/svg" xmlns:xlink="http://www.w3.org/1999/xlink" x="0px" y="0px"
	 width="100%" viewBox="0 0 992 992" enable-background="new 0 0 992 992" xml:space="preserve">
<path fill="#000000" opacity="1.000000" stroke="none" 
	d="
M346.592194,483.204773 
	C344.230011,474.341644 344.577423,465.603577 343.950256,457.016327 
	C343.222626,447.053986 341.401306,437.249878 340.622589,427.299591 
	C339.825409,417.114197 343.921509,409.050079 350.241516,401.904480 
	C356.633179,394.677917 363.562073,387.925812 370.275848,380.985443 
	C371.710663,379.502167 373.424866,378.637970 375.580841,378.590240 
	C381.132416,378.467285 384.888031,375.213928 387.662445,370.888947 
	C390.014038,367.223145 392.606934,364.279236 397.144196,363.479279 
	C399.986816,362.978088 400.737885,360.936249 400.442230,358.239929 
	C399.830322,352.658783 400.504425,347.426117 406.026184,344.434998 
	C410.942169,341.772034 418.388824,343.712189 423.276276,348.553986 
	C426.520813,351.768280 428.583740,351.450256 429.582886,347.434387 
	C435.026672,325.554260 448.898865,312.937134 471.020142,308.756256 
	C485.009583,306.112274 497.738464,308.201813 509.523560,316.327057 
	C521.244934,324.408447 531.672363,333.488281 535.420349,347.756897 
	C537.882202,347.981262 538.865051,346.907623 539.855591,345.380737 
	C543.845581,339.230286 549.519165,336.386566 555.298035,337.870300 
	C561.505249,339.463959 562.949219,344.773071 563.916504,350.133575 
	C564.385010,352.729553 564.303223,355.424805 564.473938,358.127502 
	C565.919250,359.421570 567.664124,358.682098 569.222168,358.611786 
	C572.686279,358.455444 575.415039,359.636658 577.480835,362.369965 
	C581.509827,367.700958 586.438110,371.256714 593.525757,370.734985 
	C594.930054,370.631622 596.127808,371.359192 597.165955,372.194122 
	C605.983704,379.285736 615.137085,385.934906 623.118774,394.076294 
	C629.651184,400.739319 631.990234,408.618561 632.347717,417.559296 
	C632.668335,425.580139 632.008789,433.559418 631.204346,441.489014 
	C630.458923,448.836121 631.124451,456.114319 631.059143,463.421173 
	C630.904907,480.678375 628.519592,497.524231 622.424133,513.779053 
	C619.997986,520.248840 615.968628,524.928833 609.515625,527.503113 
	C606.742065,528.609497 604.405762,530.373840 601.957336,532.768066 
	C603.278564,533.326355 604.162048,533.715881 605.057678,534.075439 
	C612.984009,537.257812 615.529541,541.118530 614.152283,549.487915 
	C613.330200,554.483093 613.248962,559.438965 613.396667,564.411560 
	C613.670288,573.622192 610.204285,581.180969 604.154663,587.914185 
	C594.003479,599.212402 582.498596,609.129089 571.856689,619.924988 
	C565.332397,626.543762 558.725342,633.049988 554.728882,641.299927 
	C560.327454,653.289062 561.437683,665.991028 558.665710,678.909180 
	C556.623230,688.427917 549.568542,691.445679 540.235413,687.379089 
	C539.433594,692.200684 536.642761,694.728760 531.658813,694.278870 
	C527.079407,693.865540 523.846924,691.809448 523.371338,686.164673 
	C520.896362,691.069031 517.348755,693.565491 512.696533,693.065918 
	C507.483154,692.506104 507.987488,687.363159 506.685272,683.797974 
	C506.261902,683.903992 505.878418,683.882629 505.694092,684.063843 
	C503.092773,686.620544 500.531403,690.028870 496.436157,688.544861 
	C492.151550,686.992310 492.474335,682.420837 491.751953,678.742859 
	C491.530426,677.614990 491.543091,676.404419 491.660248,675.253357 
	C492.044312,671.480286 491.275665,669.079224 487.131287,667.240723 
	C483.711945,665.723938 481.284790,661.939209 478.463318,659.114258 
	C475.329468,655.976562 472.015015,653.119629 466.763092,650.443054 
	C468.718323,661.518799 464.088867,670.730164 464.253632,680.520752 
	C464.273224,681.686035 464.351349,682.874390 464.169098,684.014771 
	C463.560059,687.825317 462.983948,691.690369 458.683380,693.364441 
	C454.438232,695.016968 451.751099,692.515930 449.232056,689.797668 
	C441.927490,691.910583 437.688721,688.313293 436.500000,679.117737 
	C431.123657,682.190430 428.268494,681.017273 426.298523,675.065857 
	C422.073914,662.303284 420.706696,649.706238 428.662933,637.431030 
	C426.692535,636.912476 425.067810,638.816345 423.431519,636.700989 
	C413.075378,623.312988 398.492615,614.798950 385.607971,604.320740 
	C380.180908,599.907288 374.725067,595.528137 369.350739,591.051208 
	C362.011230,584.937195 358.485046,576.823120 357.774414,567.506104 
	C357.429810,562.988586 356.784210,558.582581 355.452057,554.281616 
	C353.746033,548.773682 354.884003,543.999207 359.238617,540.262878 
	C363.302216,536.776306 368.220886,536.719421 373.570526,540.229553 
	C376.308350,542.025940 379.255371,542.865723 382.290833,543.724854 
	C402.005157,549.304749 417.478180,560.732971 428.957611,577.650818 
	C429.221344,578.039490 429.580597,578.363403 430.781097,579.714355 
	C427.648193,570.283752 422.943573,563.175842 417.364685,556.794922 
	C413.985962,552.930420 413.460327,549.022583 414.049133,544.381470 
	C415.052368,536.474060 415.892090,528.545715 416.768219,520.622620 
	C416.874969,519.657410 416.782776,518.670227 416.782776,517.325806 
	C413.586853,517.717102 411.811615,519.812378 409.817017,521.360352 
	C402.712555,526.873901 395.832977,532.700684 388.097443,537.337585 
	C380.323059,541.997742 376.764832,541.085205 372.429901,533.095154 
	C370.334595,529.233093 367.923645,525.726501 364.707764,522.760071 
	C353.276581,512.215881 349.170319,498.289520 346.592194,483.204773 
M391.140442,402.774506 
	C389.516022,410.564484 390.136932,411.874939 397.710938,416.642303 
	C399.843781,412.805420 397.562500,407.836456 390.609833,401.452179 
	C386.058533,396.580719 380.700256,394.320251 374.011322,396.272186 
	C369.865509,397.482056 365.696381,398.612579 361.556641,399.842499 
	C352.324860,402.585358 348.691101,410.297089 345.610657,418.293976 
	C344.352051,421.561279 345.775909,424.559387 349.259613,425.307526 
	C355.511932,426.650360 361.886688,427.423065 369.131348,428.581238 
	C367.840240,424.486328 368.321198,420.875153 364.957275,418.523041 
	C358.597748,414.076294 358.626556,414.035065 357.949860,412.014984 
	C367.275818,415.883392 376.255341,412.447815 380.132996,403.305145 
	C381.334076,400.473267 383.129791,400.312775 385.177124,401.681244 
	C387.205414,403.037018 389.023010,402.800629 391.140442,402.774506 
M555.599365,382.557129 
	C554.179077,385.381561 552.553406,388.123413 551.378052,391.046356 
	C548.184753,398.987915 547.473450,399.407318 539.441406,396.911255 
	C536.054871,405.190582 536.342957,406.057129 543.315796,410.426056 
	C551.716736,415.689789 559.161011,421.837982 564.373718,430.593964 
	C572.431885,444.129608 580.961426,457.384674 589.319519,470.804321 
	C591.142395,469.981354 590.846497,468.002563 591.152222,466.538910 
	C594.750854,449.310577 599.987366,432.432892 602.212708,414.908813 
	C602.596985,411.882568 603.452148,408.760559 599.863403,407.098511 
	C595.485718,405.071045 591.116577,400.980072 586.106689,405.057007 
	C583.201111,407.421478 580.574463,410.461639 578.739441,413.715027 
	C576.908142,416.961884 575.415222,418.541260 571.202148,419.333435 
	C567.001343,420.123291 565.117004,418.308228 562.110229,416.916168 
	C555.976685,414.076508 553.710327,411.545563 553.679932,404.766754 
	C553.645630,397.102417 554.733521,389.536285 556.473389,381.494781 
	C558.367188,376.845276 563.636780,378.344818 567.001953,376.041565 
	C560.906799,372.238892 558.315735,373.733429 555.599365,382.557129 
M479.436310,483.366302 
	C476.251190,481.925232 473.036804,480.544891 469.887451,479.029449 
	C464.609589,476.489777 459.260529,475.754120 453.304962,478.078979 
	C455.946808,479.360596 458.719879,476.804199 461.441193,479.243042 
	C456.300140,481.137329 451.042786,481.194427 446.667725,484.279266 
	C449.290466,484.554718 451.404449,482.078400 453.919434,483.440765 
	C453.881287,484.886597 452.813782,485.028534 451.890778,485.376251 
	C447.994415,486.844299 444.096039,488.295288 440.644501,490.720428 
	C431.100159,497.426422 427.432678,506.316132 430.616669,515.563049 
	C432.162628,520.052795 435.214386,523.672668 438.235474,527.214233 
	C448.623199,539.391541 451.287689,553.459656 448.651001,568.850952 
	C446.425842,581.839844 458.301239,599.815063 471.214966,602.772766 
	C482.009766,605.245178 492.647552,602.123108 503.363220,601.727173 
	C504.265808,601.693848 505.195587,600.739624 506.153687,601.816833 
	C505.854584,602.446899 505.552368,603.083557 504.918976,604.417908 
	C516.485107,597.978149 524.624451,589.636230 527.592224,577.121948 
	C530.053284,566.744629 527.857544,555.987671 530.459656,544.847351 
	C526.116516,549.096497 525.947815,554.432007 523.475952,558.937622 
	C522.109375,556.504272 522.902588,554.479919 523.425354,552.410156 
	C525.815918,542.945496 531.109924,535.112488 537.329163,527.844055 
	C540.975342,523.582764 542.758179,518.744995 542.673096,513.204285 
	C542.622009,509.871735 542.394165,506.541870 542.247620,503.253357 
	C543.385864,503.143433 543.530457,504.677368 544.521667,503.927246 
	C543.657532,500.696533 542.819458,497.563446 541.851013,493.942810 
	C544.820618,494.768921 544.526123,497.404541 546.228088,498.762207 
	C546.123779,498.083160 546.109192,497.625854 545.980530,497.203308 
	C541.278442,481.755463 519.433350,469.405975 502.937927,480.172058 
	C496.028229,484.681854 488.477539,487.080658 479.436310,483.366302 
M486.873596,409.618225 
	C492.573425,409.998169 498.122131,408.529907 503.742950,408.215637 
	C511.179565,407.799835 518.441650,403.476776 526.167419,407.098755 
	C528.129395,404.455261 527.826843,401.520721 527.190125,398.545288 
	C525.780823,391.959076 521.990601,386.711884 517.653870,381.806458 
	C514.362061,378.082947 510.913116,374.625000 505.698914,379.416199 
	C505.338379,380.797821 507.840820,381.860901 506.508850,383.978363 
	C496.991821,375.369385 488.030853,375.510773 480.299591,386.394257 
	C478.593475,384.015564 482.264496,381.213379 478.582611,379.864777 
	C475.110016,378.592865 472.316162,378.474365 469.221283,381.443146 
	C458.931335,391.313660 458.028442,403.640778 458.460175,417.579651 
	C461.199615,414.586609 460.665894,410.866150 464.150726,409.124451 
	C464.652191,412.555542 466.757019,411.157928 468.649963,410.710327 
	C474.361206,409.359924 480.141632,408.984222 486.873596,409.618225 
M378.584778,453.037140 
	C380.842865,459.885162 382.198517,467.043152 385.851074,473.741364 
	C386.012207,468.844238 387.878998,464.899475 390.501709,460.996735 
	C395.318207,453.829315 399.424011,446.188660 404.089935,438.914520 
	C409.890259,429.871857 414.658447,420.002625 424.429596,414.100067 
	C428.408020,411.696777 431.887115,408.868286 435.711060,414.054901 
	C435.870361,414.270966 436.578339,414.082489 438.119720,414.082489 
	C433.861420,409.205505 435.282837,400.988068 426.457947,400.510956 
	C424.532074,400.406830 423.511902,397.984863 422.512573,396.246490 
	C420.279205,392.361237 417.106781,389.338776 413.020020,385.226318 
	C414.203278,390.297943 415.346008,393.933960 415.862244,397.656891 
	C417.150177,406.945099 421.828491,416.840332 409.143982,423.009521 
	C403.475677,425.766357 398.080444,425.421814 393.875092,420.353699 
	C384.734619,409.337769 383.009705,408.088226 372.473389,415.298248 
	C369.889923,417.066101 369.410522,418.879364 370.114258,421.998779 
	C372.419525,432.217194 375.356262,442.244507 378.584778,453.037140 
M508.987457,348.095276 
	C511.459900,347.692993 513.927979,347.312134 516.256958,349.751801 
	C513.844727,350.416046 511.686127,351.010468 509.064484,351.732361 
	C511.073944,352.605682 513.374329,351.186188 514.150940,353.514465 
	C514.381348,355.614777 511.338928,354.537811 511.446228,356.473663 
	C513.755798,357.393494 515.915344,359.681946 517.876343,357.081390 
	C524.633667,359.012665 519.432129,368.222595 526.478638,369.745026 
	C526.470032,372.673370 524.793213,374.756805 522.843262,376.604919 
	C520.112122,379.193420 520.177856,381.259735 523.526367,383.084381 
	C532.599670,375.103394 532.324829,357.080414 523.147339,347.102112 
	C514.008728,337.166107 500.476746,338.180573 492.873901,349.315979 
	C491.815033,350.866821 491.460022,353.080383 489.092743,353.783173 
	C487.362305,351.739899 485.810913,349.560486 483.915649,347.738922 
	C479.264984,343.269135 473.792694,340.801819 467.174896,341.822388 
	C457.882263,343.255432 452.424622,349.158508 449.670868,357.660828 
	C446.594513,367.159119 447.846008,376.130463 454.510834,383.878143 
	C459.149689,389.270660 460.807953,388.837524 463.357147,381.789612 
	C460.591248,378.815735 456.002319,377.207977 455.160004,372.208130 
	C457.651367,372.659271 460.362213,373.056244 459.329803,369.423828 
	C457.831207,364.151398 459.911407,360.408997 463.586029,357.043610 
	C465.009338,355.740112 465.452576,353.647430 467.332092,352.820740 
	C466.192871,351.642090 464.280151,353.039856 463.839050,351.078827 
	C472.288208,346.325745 482.336121,351.444977 485.135010,361.885956 
	C486.297302,366.221710 488.251434,366.990936 492.157623,364.754150 
	C494.487030,363.420288 495.670258,361.313995 496.546173,358.907532 
	C498.572174,353.341278 502.386719,349.713867 508.987457,348.095276 
M475.102295,334.800995 
	C475.881561,334.682465 476.994507,334.716522 476.185150,333.457703 
	C475.418945,332.266052 473.177887,332.616394 473.006683,329.927765 
	C483.857300,331.988251 494.625885,334.683075 505.111694,329.545288 
	C505.906464,332.568878 503.152405,331.969391 502.837555,334.091949 
	C511.637512,330.300720 516.151917,339.862762 524.400940,340.196289 
	C518.237488,330.438019 510.290009,323.766418 500.417572,319.699097 
	C485.780884,313.669006 473.461273,321.246216 460.986603,327.283356 
	C459.843719,325.963287 462.374756,325.103485 461.479736,323.834686 
	C456.743774,324.952728 453.775269,328.792511 450.132812,331.305878 
	C448.527344,330.353210 450.685791,328.366760 448.700409,327.828613 
	C438.168121,333.150482 431.669556,360.262421 435.271423,371.277435 
	C436.249512,368.520660 435.526306,365.114441 438.054993,362.930389 
	C439.721191,363.690460 438.549988,365.246124 439.462250,366.017578 
	C442.030334,364.830139 442.030334,364.830139 442.658722,368.176971 
	C442.968353,365.899689 443.435120,363.116089 443.712402,360.313782 
	C444.840759,348.910126 454.747894,344.104218 461.325928,336.802612 
	C462.664062,335.317291 464.704987,335.380127 466.447205,335.128052 
	C469.061096,334.749878 471.747375,334.871582 475.102295,334.800995 
M556.759583,562.275269 
	C564.918518,552.329346 576.341248,546.840576 588.578552,540.098999 
	C568.506042,529.530518 557.349487,513.610046 553.034607,492.702881 
	C552.148376,494.932037 552.598755,496.831299 552.855591,498.779541 
	C555.131165,516.039490 558.430908,533.203064 557.400024,550.770630 
	C557.187622,554.389954 556.406738,557.526611 554.354065,560.547607 
	C552.057190,563.928040 550.189331,567.600098 548.134766,571.145203 
	C548.447388,571.301208 548.759949,571.457275 549.072571,571.613281 
	C551.475281,568.673279 553.877991,565.733276 556.759583,562.275269 
M601.370972,404.090912 
	C605.994202,407.760773 609.516418,403.494568 614.071777,401.699860 
	C612.468811,405.817139 609.398804,407.381073 607.100830,409.661469 
	C604.987000,411.759033 603.762634,415.013550 605.020264,417.317719 
	C606.557312,420.133759 609.195129,418.431152 611.301941,416.772217 
	C611.924194,416.282318 613.185242,416.555023 614.153015,416.561188 
	C618.228027,416.587097 621.725159,414.495300 625.501770,413.440247 
	C627.372437,412.917603 627.896667,411.262543 627.457581,409.408081 
	C626.920105,407.138458 626.001526,405.055115 624.844727,402.994263 
	C619.119141,392.794067 609.765564,389.168030 598.823730,388.360657 
	C593.888306,387.996460 588.797485,386.968353 584.408630,390.367340 
	C582.818481,391.598877 579.905212,392.436523 580.998413,395.104736 
	C581.951843,397.432098 583.724182,399.653107 586.672607,399.408051 
	C588.635254,397.599365 586.628357,395.382660 588.555725,392.539215 
	C590.499634,399.207184 595.603333,401.479736 601.370972,404.090912 
M492.726166,442.483887 
	C492.793823,438.467590 492.317200,434.501709 491.094452,430.689941 
	C490.372070,428.437897 489.132874,426.163422 486.247192,426.519318 
	C483.286957,426.884399 481.976532,429.171997 482.076294,431.886292 
	C482.476990,442.788147 480.525604,454.236389 493.073761,461.162506 
	C496.743866,463.188263 498.317810,462.750153 500.477966,460.726837 
	C502.854309,458.501068 503.944916,455.472046 503.899261,452.159363 
	C503.812195,445.842285 503.761780,439.522186 503.495728,433.211761 
	C503.420776,431.433563 502.872131,429.584961 502.139832,427.947998 
	C501.242371,425.941772 499.454865,424.979706 497.209747,425.554962 
	C495.116913,426.091156 495.135773,427.843567 495.159363,429.567596 
	C495.227570,434.554779 495.340576,439.543762 495.258636,444.529083 
	C495.235046,445.965881 495.967773,447.936218 493.702942,448.684326 
	C492.305786,447.040070 492.970367,445.122131 492.726166,442.483887 
M513.632202,636.330444 
	C513.200989,632.358093 510.118469,631.317322 507.128754,631.701477 
	C503.182495,632.208679 499.840576,634.368835 499.309387,638.891357 
	C498.337708,647.165039 496.183441,655.212891 494.817688,663.401978 
	C493.848114,669.215515 493.724945,675.134827 495.384674,681.309998 
	C499.232422,673.233643 499.273651,673.227173 504.085266,679.859192 
	C506.924011,676.005737 508.279602,672.011902 507.261871,667.258484 
	C506.421783,663.334778 505.217407,658.710938 507.440338,655.531189 
	C511.593964,649.589661 509.479309,642.732483 511.467316,637.072998 
	C512.348267,635.968811 512.868713,638.116272 513.632202,636.330444 
M528.962952,655.632690 
	C529.584595,653.205261 530.686279,650.133911 527.809021,649.013489 
	C525.648804,648.172241 523.360229,650.041321 521.079590,651.409485 
	C515.446106,654.789185 515.152527,660.617126 512.929199,665.589417 
	C510.213959,671.661804 509.787811,678.007141 510.449310,684.926880 
	C511.673615,681.807861 512.009033,678.693359 514.903564,677.108643 
	C518.610779,678.934021 517.804199,682.577698 519.331177,685.478943 
	C520.663452,675.134155 525.802002,666.137390 528.962952,655.632690 
M592.282349,376.044617 
	C593.344849,375.677490 594.815002,375.564575 594.264282,373.873291 
	C593.912537,372.793213 592.897461,372.494049 591.806091,372.735504 
	C591.159058,372.878632 590.537842,373.134369 589.895203,373.302032 
	C580.937988,375.639130 572.742493,380.539917 563.214294,381.032715 
	C560.382080,381.179230 559.084412,383.585388 558.326843,386.092346 
	C556.628845,391.711914 556.096069,397.474579 556.300476,403.324402 
	C556.407959,406.400909 558.368469,407.391296 561.762024,408.247772 
	C561.762024,404.209930 561.626892,400.758392 561.794617,397.321625 
	C562.029846,392.501801 563.702759,388.332581 568.869446,387.070190 
	C573.380981,385.967957 577.117310,383.666046 580.724487,380.955017 
	C583.962830,378.521271 587.524963,376.807159 592.282349,376.044617 
M397.808441,391.660889 
	C405.281158,392.700897 406.972351,394.405365 408.712860,401.703735 
	C409.542664,405.183289 408.964996,409.047760 411.432434,412.347992 
	C413.379852,411.542267 415.276520,410.702850 415.038940,408.256897 
	C414.411499,401.798065 413.506653,395.381897 410.569702,389.460144 
	C409.176941,386.651855 407.042389,385.107300 403.797241,385.392853 
	C397.520264,385.945251 391.633698,384.101837 385.683533,382.533234 
	C382.802551,381.773712 379.840485,381.273590 376.886658,380.858704 
	C375.406433,380.650787 373.812988,380.831757 373.872986,383.539154 
	C379.828735,384.522491 385.880890,385.447388 391.023071,389.187714 
	C392.706940,390.412537 395.000946,390.798584 397.808441,391.660889 
M456.353455,677.342834 
	C459.396912,679.007874 458.739136,682.517700 460.186981,685.111816 
	C458.828979,677.207458 461.518250,669.922668 462.985809,662.495361 
	C463.835480,658.195129 464.861816,654.012573 460.653229,650.657715 
	C459.117401,649.433350 459.507263,647.582031 460.490356,645.931946 
	C455.104645,645.632507 452.805939,647.782288 453.458527,653.448059 
	C454.093079,658.957031 453.988556,664.372314 453.305145,669.807617 
	C452.751556,674.210510 451.959229,678.583435 451.180054,683.562134 
	C453.092957,681.250732 452.680603,678.020691 456.353455,677.342834 
M597.271301,383.138580 
	C597.938538,379.899323 595.614563,379.558807 593.415649,379.331299 
	C589.454468,378.921509 585.849609,380.009186 582.560059,382.246124 
	C579.396423,384.397491 576.363892,386.827271 572.973694,388.541382 
	C566.633911,391.746796 564.285034,396.566986 565.210205,403.534058 
	C565.572083,406.259491 566.198792,407.924866 569.394470,408.029663 
	C570.079529,406.546448 571.112915,405.118988 571.400818,403.554352 
	C573.252747,393.488434 580.964355,389.176788 589.089233,385.238739 
	C591.513306,384.063812 594.476929,385.466980 597.271301,383.138580 
M397.052094,394.452179 
	C393.950592,392.862244 390.817535,391.330444 387.755646,389.667572 
	C383.993744,387.624481 380.071198,386.513611 375.782257,387.310150 
	C373.856140,387.667847 371.741943,387.934845 371.782959,390.739166 
	C373.794159,392.780121 376.426880,392.194397 378.801910,392.669617 
	C388.245026,394.559387 396.071442,398.611755 399.735779,408.364502 
	C400.802734,411.204376 402.198578,414.205109 406.828552,414.120514 
	C405.040771,406.778168 407.311554,398.149841 397.052094,394.452179 
M538.655701,671.452026 
	C543.079224,665.060608 541.586487,658.927124 536.658569,652.997375 
	C533.426880,653.835938 531.846741,657.072327 531.256531,661.087524 
	C530.008118,669.580933 530.711975,678.366821 527.448303,686.567017 
	C527.342224,686.833557 527.759216,687.308289 528.024597,687.887146 
	C529.967285,684.895142 529.048401,680.016052 533.196655,679.387573 
	C535.829224,678.988770 535.719910,682.588928 536.715759,684.757202 
	C536.580627,680.310852 537.071838,676.207092 538.655701,671.452026 
M447.677795,665.722168 
	C448.116516,662.942566 448.236176,660.062012 449.074951,657.408936 
	C450.116974,654.112793 449.319916,651.609253 447.075897,649.246643 
	C446.197693,648.322021 445.784637,646.686218 444.097198,647.106628 
	C442.460388,647.514526 441.617554,648.976196 441.489471,650.453491 
	C440.563599,661.131653 439.413879,671.805969 439.976746,682.631104 
	C441.472382,680.306824 441.227905,676.530701 444.517700,676.118042 
	C447.117767,675.791870 446.843323,678.973145 447.674957,680.589905 
	C447.674957,675.965942 447.674957,671.319702 447.677795,665.722168 
M390.803131,378.629059 
	C394.462402,378.487183 397.144684,377.324677 396.261505,372.716034 
	C403.613983,376.155243 417.409790,374.355286 422.836700,369.469727 
	C420.946777,366.568176 418.643188,365.349854 414.912384,366.041901 
	C410.376770,366.883331 405.696991,367.055511 401.068237,367.258514 
	C395.651672,367.496094 389.869019,371.556824 388.208954,376.592621 
	C387.587341,378.478210 389.028198,378.373962 390.803131,378.629059 
M569.346924,368.276428 
	C569.963257,367.684082 571.039490,367.025635 571.193787,368.201385 
	C572.007629,374.402008 576.383423,371.676849 579.815857,372.647552 
	C574.213684,357.329376 561.846252,363.508362 551.931030,362.476471 
	C548.685608,362.138733 546.188477,363.394196 544.967224,366.456238 
	C545.642578,368.175415 547.016907,368.452362 548.263000,368.792572 
	C554.241577,370.424957 560.418396,369.898224 566.507324,370.298340 
	C567.274170,370.348694 568.113098,369.302551 569.346924,368.276428 
M545.898132,676.986328 
	C544.723999,679.847961 541.917236,682.728943 546.051208,685.806519 
	C545.040771,680.430298 549.559875,680.372925 552.323792,678.894714 
	C553.933716,678.033752 556.664429,678.799988 556.591431,675.803467 
	C556.501648,672.120605 558.361206,667.752319 554.387146,665.186218 
	C551.916748,663.590759 549.805481,662.142761 549.625000,658.858276 
	C545.420288,659.564819 544.880615,661.888489 545.702637,665.115845 
	C546.638916,668.791748 548.197327,672.460388 545.898132,676.986328 
M425.461456,653.046570 
	C424.508118,660.640991 425.375427,667.405640 433.571320,670.182068 
	C432.518341,666.261108 431.387268,661.391174 433.175934,657.082336 
	C435.694000,651.016357 432.441803,648.323486 428.329559,645.475708 
	C425.328339,647.038940 426.675781,650.097107 425.461456,653.046570 
M485.046356,636.053040 
	C493.506592,627.595093 493.617737,627.366089 490.982361,623.821045 
	C484.985870,627.335205 476.925446,627.940063 473.566559,635.509460 
	C476.915771,637.074158 481.492218,629.627441 483.026764,637.764832 
	C483.619049,637.278320 484.121094,636.865906 485.046356,636.053040 
M545.499939,380.002045 
	C541.608887,385.400879 541.497070,388.482880 545.545715,393.928040 
	C548.204895,386.928040 552.633301,381.178589 554.091492,373.835907 
	C548.622131,372.524200 548.357971,377.440857 545.499939,380.002045 
M418.938538,377.938171 
	C417.481293,376.500793 416.097595,376.480316 414.549530,378.379883 
	C418.085876,384.992767 423.423401,390.240143 428.495331,396.943207 
	C430.366669,391.582825 429.899139,387.882080 426.388672,384.731781 
	C424.048737,382.631958 421.735077,380.502838 418.938538,377.938171 
M478.671814,653.736389 
	C479.797241,656.330139 481.321350,658.542664 484.513184,659.875305 
	C483.980469,655.375793 486.862152,655.537170 490.219177,656.134888 
	C487.728241,652.687927 485.686646,649.910583 483.701843,647.093201 
	C482.883911,645.932190 482.044037,644.933838 480.485016,645.754761 
	C479.041992,646.514526 477.306305,647.182739 477.479187,649.231567 
	C477.587860,650.519226 478.100616,651.772705 478.671814,653.736389 
M511.419373,443.585785 
	C511.021759,444.979645 509.382233,445.982208 509.780304,447.944855 
	C516.824402,443.433258 524.512390,414.091400 519.294067,410.127625 
	C520.040649,422.075714 516.147156,432.581268 511.419373,443.585785 
M488.997589,640.341125 
	C485.181183,640.678711 484.862823,642.608215 486.935730,645.277283 
	C489.035492,647.980896 491.356598,650.512512 493.720398,653.283203 
	C497.473328,644.976990 496.112244,640.924500 488.997589,640.341125 
M473.688599,445.678406 
	C475.006653,447.237518 476.101349,449.071106 478.576752,449.428833 
	C474.500366,444.946655 471.789520,439.797516 469.663269,434.244690 
	C467.564240,428.762878 467.030579,422.895721 464.997803,417.430084 
	C463.067535,428.034241 468.655853,436.424347 473.688599,445.678406 
M577.471008,397.645111 
	C576.364624,399.682709 575.005798,401.628693 574.223511,403.783875 
	C573.455444,405.899933 570.537415,408.727264 573.399780,410.281342 
	C575.928528,411.654236 577.890747,408.229553 579.480774,406.334808 
	C582.514709,402.719696 581.799500,399.396423 577.471008,397.645111 
M416.507141,492.393127 
	C416.507141,498.091156 416.507141,503.789185 416.507141,509.487213 
	C418.508057,502.410828 419.307220,495.341766 417.287476,487.033813 
	C416.947968,489.347076 416.781616,490.480469 416.507141,492.393127 
M519.370117,438.591553 
	C518.854065,441.125488 516.387695,443.239807 517.820862,447.554657 
	C522.346558,439.955658 522.928162,432.783356 522.718323,425.580231 
	C521.724365,429.577972 520.694031,433.722015 519.370117,438.591553 
M467.802979,441.536194 
	C466.679321,439.142548 465.555664,436.748871 464.432007,434.355225 
	C467.808502,447.531799 467.808502,447.531799 474.180756,451.336365 
	C472.141205,448.215149 470.162445,445.187012 467.802979,441.536194 
M407.398926,378.721954 
	C405.836304,379.520538 403.800903,378.735229 402.085388,380.382538 
	C405.041290,381.898438 407.918518,382.631409 411.102875,382.910217 
	C410.919952,380.654327 410.104126,379.215607 407.398926,378.721954 
M498.309967,629.901184 
	C500.164612,629.520203 501.179596,628.538391 500.811188,626.487244 
	C499.432434,625.367310 497.862549,625.214355 496.029633,625.208069 
	C496.647980,626.818115 497.212219,628.287292 498.309967,629.901184 
z"/>
<path fill="#000000" opacity="1.000000" stroke="none" 
	d="
M693.299927,617.731323 
	C682.279114,609.081116 671.271545,601.005859 660.789978,592.228455 
	C652.856323,585.584778 648.667603,577.273438 647.857422,567.260559 
	C647.450500,562.232788 646.588623,557.405334 645.169434,552.597168 
	C643.804626,547.972961 645.381714,543.958862 648.781860,540.831604 
	C652.220825,537.668579 656.617004,536.199829 660.742554,538.718201 
	C666.544250,542.259827 673.018799,543.705933 679.230103,545.970154 
	C695.253662,551.811218 708.012939,561.786743 717.604858,575.864014 
	C718.251404,576.812805 719.058838,577.652100 719.875000,578.643982 
	C718.706238,572.455811 713.935059,563.983215 706.761963,555.893005 
	C704.783997,553.662170 703.631775,551.416687 703.410950,548.401184 
	C702.330994,533.655518 704.861511,519.247742 707.133911,504.798035 
	C707.828979,500.378510 708.853210,495.979523 708.640991,491.445984 
	C708.473328,487.866028 706.645996,486.636719 703.340332,487.801086 
	C699.572021,489.128387 695.913513,490.782288 692.111389,491.993286 
	C689.975403,492.673584 687.962463,494.851105 685.272156,492.399506 
	C684.005798,491.245514 682.749634,493.375031 681.698059,494.322601 
	C677.491577,498.113190 673.366150,501.994293 669.134888,505.756653 
	C664.858215,509.559448 659.871826,511.525299 654.070007,511.351959 
	C650.420776,511.242920 646.897339,511.425446 643.305969,512.798523 
	C638.317017,514.705872 633.771851,511.239990 632.674561,506.030670 
	C630.035034,493.499695 633.484192,482.902496 641.460571,473.099457 
	C649.613098,463.080017 658.602356,454.150818 668.969971,446.385651 
	C680.654907,437.633728 689.664001,426.159760 698.550354,414.682312 
	C702.221436,409.940857 705.637817,404.996399 709.429626,400.356415 
	C711.954895,397.266266 712.222412,394.873871 709.360168,391.695160 
	C703.549255,385.241638 698.917175,377.890503 694.456421,370.446625 
	C691.822632,366.051483 690.496643,361.423462 690.596619,356.219543 
	C690.803650,345.444366 697.182495,340.789490 707.479858,344.299011 
	C709.354065,344.937775 711.129700,345.923004 712.865601,346.899780 
	C717.941528,349.755981 718.500916,349.547333 720.617188,343.909027 
	C722.194153,339.707428 723.545715,335.428131 725.944214,331.552673 
	C734.132507,318.321991 746.320068,311.561859 761.307983,308.734344 
	C774.148560,306.311890 786.157043,307.681732 797.266479,314.795776 
	C808.769409,322.161774 819.356995,330.406219 824.295410,343.894348 
	C824.567871,344.638428 825.125671,345.278015 825.654419,346.134308 
	C828.349121,345.630402 830.175659,344.148560 831.911316,342.305023 
	C835.768188,338.208435 840.697815,336.623657 846.030457,338.046936 
	C851.163635,339.416992 852.890930,343.969818 853.844543,348.727478 
	C854.605774,352.525421 854.628906,356.326080 853.598877,360.102692 
	C851.004333,369.614746 847.589783,378.812103 842.920227,387.506927 
	C841.492493,390.165405 840.603394,392.646698 842.707275,395.376465 
	C854.492981,410.668396 865.304810,426.761505 879.658447,439.929871 
	C885.433105,445.227600 892.171875,449.326477 897.762024,454.870300 
	C904.653381,461.704620 910.743591,469.124573 916.207153,477.157318 
	C922.136597,485.874969 922.316162,495.232880 920.250244,504.941315 
	C919.224792,509.760254 914.509460,512.282959 909.869568,510.553589 
	C907.128784,509.532043 904.420227,509.091003 901.569214,509.273743 
	C894.326599,509.737915 888.186523,507.301514 882.917175,502.395142 
	C877.951111,497.771118 872.927368,493.209137 868.212891,488.880585 
	C865.790039,489.217377 866.803406,491.379791 864.970581,492.384369 
	C859.826538,490.417084 854.260193,488.301453 848.705017,486.156982 
	C846.648071,485.362976 844.552856,484.469116 842.624878,486.256744 
	C840.909302,487.847412 841.518555,489.847565 841.815857,491.865112 
	C844.624817,510.927124 848.401794,529.876099 847.466125,549.340759 
	C847.232239,554.207031 846.444214,558.437195 843.372437,562.308044 
	C841.747314,564.355835 840.751648,566.903137 839.464844,569.237610 
	C840.791931,570.187805 841.166016,569.158508 841.571106,568.592651 
	C850.161865,556.593872 861.711365,548.389160 875.016418,542.417603 
	C878.790955,540.723511 882.564392,539.181763 885.853210,536.420044 
	C889.571167,533.297974 893.962952,532.920593 898.447937,535.382996 
	C902.907593,537.831543 905.206238,541.768066 904.492310,546.516052 
	C903.319275,554.316956 903.795105,562.139343 903.194885,569.919922 
	C902.708984,576.220032 899.677856,581.621399 895.576965,586.438354 
	C889.512878,593.561157 882.680969,599.917969 876.010437,606.442200 
	C865.439331,616.781738 853.992188,626.299927 846.033569,638.630188 
	C843.594360,639.012024 842.573181,636.739258 840.604370,636.810364 
	C853.499634,646.970764 852.673035,661.374512 851.938721,675.303772 
	C851.522888,683.191711 843.883301,686.387268 835.917053,683.176819 
	C834.212708,691.903625 828.691162,693.254761 820.188721,687.025513 
	C810.759338,693.541138 807.900757,692.928101 804.907715,683.674438 
	C803.261169,683.554932 802.879883,685.119019 802.007263,685.960449 
	C797.279541,690.519104 793.844421,689.762756 791.621826,683.641418 
	C788.926208,676.217346 789.460815,668.558838 789.972656,660.909485 
	C790.127441,658.595459 790.380371,656.276367 790.777466,653.992493 
	C791.698914,648.692932 789.687683,645.352234 784.081116,643.972290 
	C781.040344,646.923462 778.276672,650.499146 774.376160,652.829834 
	C772.871033,653.729004 773.397644,655.514954 773.342712,656.982788 
	C773.144043,662.291260 774.065979,667.651367 772.673645,672.903320 
	C771.718018,676.508179 771.843872,681.052979 767.222900,682.170288 
	C762.899170,683.215820 760.854248,679.489685 758.639221,676.344360 
	C754.873413,686.901550 751.930542,687.541443 742.946350,680.160767 
	C735.882263,687.146118 729.495667,686.032043 727.030823,677.384460 
	C716.285095,679.922852 710.921509,675.366577 710.581482,664.027893 
	C710.352722,656.397095 712.265564,649.173889 713.854431,641.884827 
	C714.403687,639.364929 714.170410,637.626343 712.614746,635.524414 
	C707.368408,628.435913 700.295044,623.403931 693.299927,617.731323 
M736.722900,541.091980 
	C739.426392,548.558533 740.582031,556.191162 739.435547,564.128052 
	C738.985352,567.244873 738.361450,570.449402 738.639648,573.539917 
	C740.140442,590.208496 755.118958,608.433899 778.464294,602.984253 
	C781.523254,602.270203 784.623230,600.928833 787.190857,601.375610 
	C788.615295,602.759033 786.434509,602.641235 787.484985,603.811584 
	C791.689514,602.121582 796.985840,602.354004 800.577820,600.491760 
	C809.748230,595.737549 815.323181,587.248291 817.750916,577.032104 
	C819.691284,568.867004 818.539429,560.446716 819.629517,552.194397 
	C820.853699,542.927002 822.028137,533.734070 828.580627,526.276245 
	C831.796509,522.616028 832.831238,518.025513 832.748291,513.245728 
	C832.686523,509.692596 832.332825,506.144501 832.106750,502.555115 
	C833.938171,502.644226 833.559937,504.438568 834.640503,504.927002 
	C834.898804,501.089844 831.924988,497.881012 832.373108,493.877777 
	C835.007507,494.534149 834.550537,497.238770 836.051880,498.539276 
	C832.224976,481.591095 811.005920,470.473816 796.246094,478.971436 
	C783.635315,486.231812 772.238525,486.475342 760.146790,479.183319 
	C759.159729,478.588074 758.027405,478.198181 756.920654,477.843506 
	C752.844360,476.537079 748.802917,476.789398 744.789246,478.072266 
	C746.800049,478.713806 749.213928,476.799713 751.366150,479.468262 
	C746.217102,480.938324 741.211731,481.499939 736.207764,484.538605 
	C739.313965,484.263184 741.336609,482.503418 744.189575,483.676971 
	C740.901428,486.549164 736.860535,487.188416 733.469910,489.055664 
	C719.291382,496.864288 715.352600,511.650330 725.543884,523.695923 
	C729.830688,528.762634 733.996033,534.030884 736.722900,541.091980 
M746.339722,376.734558 
	C745.456970,377.617584 744.780640,379.038086 741.944641,377.299347 
	C747.749817,367.769348 755.020203,359.306152 761.801331,350.080933 
	C759.408508,348.886719 757.824402,347.445221 757.115845,345.281372 
	C750.638245,353.404602 745.616516,362.145996 738.052551,369.216583 
	C735.942383,366.047638 737.524536,364.498077 738.709595,362.984894 
	C742.200012,358.527832 745.653381,354.030151 749.374939,349.769928 
	C751.608948,347.212463 751.588867,345.228302 749.034973,343.177856 
	C738.799622,348.887848 732.067993,357.357513 726.721191,367.695557 
	C721.287537,378.201538 717.357910,388.347900 722.780273,400.215607 
	C719.492188,399.809814 719.434998,396.593781 716.828369,396.137146 
	C713.747375,400.530914 710.624695,404.997681 707.486938,409.453766 
	C705.783264,411.873138 707.008911,414.468201 708.985779,414.675964 
	C713.533081,415.153992 716.366882,418.620148 720.396790,420.015350 
	C727.585510,422.504211 737.176147,419.027954 740.475830,411.693939 
	C738.869995,410.681427 736.196045,411.319733 735.298035,408.260315 
	C739.643616,409.054291 743.286987,407.989349 746.517822,405.879425 
	C750.355652,403.373108 752.619568,399.350616 755.417114,395.845398 
	C762.888733,386.483856 764.811157,373.740509 774.446899,365.240234 
	C771.306519,366.028442 769.903809,364.857025 769.986023,361.650635 
	C762.079224,369.045868 759.032471,379.671082 749.848999,385.136353 
	C754.089355,372.036072 765.341736,363.781006 772.755371,352.723419 
	C769.813110,352.772247 766.944275,356.262634 765.045837,351.404663 
	C758.814026,359.846313 752.787720,368.009583 746.339722,376.734558 
M784.354126,355.145966 
	C792.729309,363.022980 800.225952,371.529175 804.168518,382.623474 
	C794.869873,376.127869 791.120239,365.076233 782.286499,356.557159 
	C783.993958,360.408295 785.528687,363.732788 778.685608,362.013428 
	C784.296753,366.773895 787.349060,371.623077 789.633484,377.087433 
	C791.168762,380.759857 792.974976,384.403900 795.216797,387.679565 
	C801.141785,396.337097 805.417786,407.313446 819.293823,405.515900 
	C817.883728,408.727142 814.781250,407.948395 812.799988,409.336487 
	C815.425110,412.811096 818.754517,414.728485 821.932251,416.847504 
	C824.164917,418.336304 826.297241,420.083008 829.227417,418.752350 
	C833.250916,416.925171 838.015381,416.520630 841.128540,412.960846 
	C842.775391,411.077759 843.474670,412.739960 844.548340,413.667175 
	C845.812073,411.357635 848.667725,409.604675 846.414307,406.568085 
	C842.985596,401.947540 839.410156,397.434479 836.633118,392.040161 
	C834.751526,393.990295 834.745422,396.958527 831.988647,397.376068 
	C831.820923,397.147766 831.634033,397.009888 831.639343,396.879852 
	C831.659363,396.390472 831.627625,395.853027 831.817871,395.423309 
	C835.388489,387.359833 834.611023,379.354584 830.618530,371.853638 
	C825.079712,361.447479 821.434814,349.509338 809.682129,343.668243 
	C809.248352,343.452637 808.876038,343.068085 808.544128,342.699921 
	C806.152893,340.047089 804.347046,340.806091 802.582092,343.964569 
	C805.351379,347.378540 808.187988,350.828888 810.974060,354.319550 
	C817.397034,362.366821 817.387085,362.374756 815.812866,366.764679 
	C808.383179,358.575958 802.408020,349.892517 795.907043,340.711884 
	C797.822144,345.187714 794.927734,345.714081 791.513672,345.963531 
	C797.520813,353.989777 803.149292,361.409119 808.646973,368.924194 
	C810.090332,370.897217 812.288940,372.863892 810.293457,376.992371 
	C806.387085,371.802765 802.947021,367.268738 799.546509,362.705170 
	C796.004883,357.952179 792.501465,353.170685 788.893860,348.283112 
	C786.044617,354.078003 783.599060,349.009186 780.951721,348.339111 
	C781.377747,350.754089 782.520142,352.731140 784.354126,355.145966 
M766.888245,382.734741 
	C760.565857,390.727722 758.137695,400.899139 751.409607,408.440369 
	C759.425049,415.355347 795.701111,415.375549 804.743591,408.807190 
	C802.078857,404.697876 798.390076,401.140472 796.530823,396.544769 
	C794.251526,390.910614 790.722961,387.864166 784.358032,389.799530 
	C784.408386,386.087952 787.729309,385.482574 789.162048,383.566498 
	C788.695862,381.029388 787.075500,379.880493 785.019165,379.490479 
	C777.605896,378.084595 771.971741,381.128418 767.940247,388.075928 
	C766.288574,384.253052 769.133484,382.938385 769.682922,380.227905 
	C768.545044,381.212952 767.925354,381.749451 766.888245,382.734741 
M793.167969,333.583160 
	C801.665283,331.373535 806.957703,338.662231 815.086182,341.416351 
	C809.843933,331.251831 801.936951,325.566132 793.343933,321.033020 
	C777.742310,312.802673 764.198242,320.652252 750.702393,327.631927 
	C749.842651,325.374481 752.934998,324.854095 752.551941,322.885254 
	C747.575195,325.053833 743.621155,328.562103 739.770813,332.008972 
	C737.915833,330.590424 740.713440,328.925629 738.988892,327.787109 
	C730.732788,332.610748 726.753601,343.757385 729.042358,357.135651 
	C731.992188,348.478088 740.058777,346.566742 745.505493,341.652374 
	C751.416931,336.318665 757.896667,333.706177 765.803528,334.744446 
	C765.812927,332.072937 762.648438,332.694580 762.935120,330.426147 
	C763.296631,330.276062 763.912354,329.822327 764.118347,329.964050 
	C768.392822,332.904907 773.688660,330.137054 778.395691,332.673279 
	C780.007751,333.541901 784.555786,334.964050 787.856812,332.104706 
	C789.835632,330.390778 792.979736,329.374817 796.021240,330.373291 
	C796.029846,332.876099 793.399109,331.833923 793.167969,333.583160 
M750.267639,416.712158 
	C751.287598,423.640076 754.334045,429.562500 758.719788,435.001556 
	C768.535706,447.175110 782.118347,442.948608 793.992371,441.925507 
	C804.829163,440.991791 808.987732,430.533142 812.689087,421.192261 
	C814.395813,416.884888 813.334290,414.213501 808.612915,412.574463 
	C805.991577,416.404633 803.144836,420.353455 798.473389,421.645355 
	C782.772278,425.987518 767.093445,429.597778 754.200806,414.910706 
	C752.614563,413.103790 750.704651,412.417389 750.267639,416.712158 
M770.690552,656.661560 
	C770.317688,650.205444 770.036987,643.742188 769.539368,637.295654 
	C769.211853,633.052612 767.017883,630.067078 762.644165,629.336914 
	C759.586792,628.826477 756.969360,629.523010 756.421143,633.239685 
	C759.174622,634.428040 760.464111,636.153992 759.067932,639.181702 
	C757.982361,641.536072 757.578491,644.280640 758.813904,646.434265 
	C761.644470,651.368408 761.005676,656.163269 759.748901,661.333496 
	C758.728027,665.533386 758.071228,670.060059 761.872620,673.998596 
	C763.625366,671.088257 762.939514,666.869385 766.722900,666.113159 
	C769.114258,665.635132 768.804138,668.967834 770.717834,670.619568 
	C770.717834,665.866577 770.717834,661.743164 770.690552,656.661560 
M803.948547,672.384460 
	C803.647217,670.248169 803.384766,668.105469 803.035583,665.977051 
	C802.476013,662.566223 801.046265,659.126648 802.974487,655.755798 
	C805.430664,651.462036 805.254944,647.196106 803.082520,642.954407 
	C804.371948,641.484863 805.563538,640.126892 806.680481,638.853943 
	C805.747559,636.200500 804.150269,635.096497 801.610657,635.404907 
	C800.291504,635.565125 799.285828,636.146301 799.383545,637.567688 
	C799.672974,641.775574 798.138550,644.958557 794.600342,647.326965 
	C793.246033,648.233582 793.378662,649.961609 793.386658,651.476807 
	C793.401733,654.310852 792.832153,657.104248 792.632202,659.894653 
	C792.178406,666.226685 791.516663,672.656433 793.521790,679.095703 
	C795.310242,677.088013 794.809143,673.204224 797.831848,673.236267 
	C801.249634,673.272644 800.032776,677.846313 802.223206,679.579529 
	C803.749878,677.582275 803.776184,675.391541 803.948547,672.384460 
M748.339294,646.902283 
	C747.307251,645.309265 745.765320,643.869385 746.816223,641.661987 
	C741.085266,642.081848 739.200989,644.337708 740.626465,650.206970 
	C742.716797,658.813782 746.074951,667.113586 746.252319,677.051025 
	C748.429810,673.792542 747.817200,669.414490 751.557068,669.361877 
	C754.527710,669.319946 754.009644,673.070740 755.149109,675.782471 
	C756.681946,667.843811 754.323669,661.093994 752.990723,654.170044 
	C752.401489,651.109192 751.398560,648.876953 748.339294,646.902283 
M819.378601,667.109741 
	C820.436646,662.946045 822.383667,659.048035 822.702148,654.648926 
	C823.016663,650.303528 821.248108,648.103638 817.794922,647.898926 
	C815.450562,653.380981 810.095337,656.592468 809.500183,662.907898 
	C808.872986,669.562744 806.091003,676.016663 808.430115,682.864502 
	C809.824341,680.179626 809.564514,675.923035 813.213928,675.450073 
	C815.795654,675.115417 815.961182,678.587097 816.711731,680.919739 
	C817.544861,676.350342 818.316711,672.117249 819.378601,667.109741 
M730.528503,665.223389 
	C731.410828,668.601440 731.288513,672.014526 730.894470,675.551147 
	C732.437622,670.503479 738.268127,667.726196 737.638550,661.632446 
	C737.075989,656.187561 740.017151,649.834961 733.421936,645.967529 
	C728.061340,654.003906 728.064453,654.003113 730.261475,662.896362 
	C730.379578,663.374390 730.371643,663.883423 730.528503,665.223389 
M723.977783,669.851868 
	C721.873901,665.768982 721.560181,661.657349 723.568970,657.408203 
	C724.126526,656.228821 724.390076,654.878601 724.601135,653.576416 
	C724.801453,652.340027 724.304932,651.261780 723.158997,650.636719 
	C722.025940,650.018616 720.269470,650.031372 719.975037,650.944397 
	C718.973633,654.049988 715.606323,654.912964 714.259949,657.556213 
	C711.529480,662.916748 713.308533,667.528625 718.937927,669.514221 
	C720.867798,670.194885 722.720276,670.929626 724.618713,673.519958 
	C724.379944,671.691833 724.298767,671.070496 723.977783,669.851868 
M838.436462,659.751221 
	C841.381348,666.301575 841.469788,672.970886 838.952637,679.933960 
	C840.006287,676.298950 843.084351,675.281250 845.683411,674.452820 
	C849.110840,673.360413 849.708069,671.377930 849.763672,668.202515 
	C849.840210,663.832764 847.658508,661.490723 843.969482,660.287659 
	C843.315552,658.474487 846.127441,657.377441 844.487854,655.556396 
	C841.917847,655.679565 839.678467,656.375244 838.436462,659.751221 
M825.302979,664.353638 
	C825.689819,667.623840 826.076599,670.894104 826.490051,674.389404 
	C828.372742,673.572144 830.053772,673.694885 831.500061,675.378296 
	C832.967834,667.431335 837.899841,659.655640 829.909241,652.307861 
	C824.870850,654.005005 825.297424,658.839478 825.302979,664.353638 
M833.488586,353.264435 
	C832.590698,351.636810 831.692810,350.009155 830.762695,348.323181 
	C826.825684,356.920563 829.255859,367.122833 836.715881,371.169739 
	C836.088928,365.053009 838.308350,359.030304 833.488586,353.264435 
M783.311951,635.824097 
	C783.985413,636.478760 784.425537,637.379883 785.726501,636.583862 
	C791.441467,633.086853 791.872925,633.280945 794.486328,639.889038 
	C794.511108,632.932739 786.057800,625.807007 776.306824,624.478760 
	C776.962097,629.231079 780.839539,631.766907 783.311951,635.824097 
M712.641907,383.615875 
	C712.318909,379.074524 707.930603,377.404175 705.721497,374.172729 
	C703.695435,371.209106 705.579956,365.887512 699.810852,364.460449 
	C699.004761,375.212128 707.196899,380.481110 712.315186,387.597626 
	C712.428162,386.504761 712.541138,385.411865 712.641907,383.615875 
M844.390808,358.369507 
	C843.621521,358.295868 842.852234,358.222229 841.805359,358.122040 
	C842.345154,361.672455 843.434143,364.981567 842.245667,368.502472 
	C840.424927,373.896667 840.580139,373.949066 842.273743,379.477631 
	C845.682739,371.936310 848.793640,364.368011 850.008850,355.500854 
	C848.161621,357.985992 849.285950,361.357635 846.272888,362.514862 
	C844.584473,360.438965 847.218445,358.476959 845.784485,356.509155 
	C845.415039,357.110260 845.104248,357.615936 844.390808,358.369507 
M718.379211,359.870941 
	C718.276367,363.975220 716.760681,368.215057 719.110291,372.424774 
	C725.674133,366.673462 726.794556,361.045807 723.394592,352.528900 
	C720.767700,354.059784 722.436768,358.607361 718.379211,359.870941 
M772.808777,418.954865 
	C770.419922,419.092712 768.003662,417.721680 765.499939,419.006073 
	C771.691650,422.584259 791.269653,421.507965 796.994751,417.320343 
	C793.081787,416.792542 789.415344,418.296539 785.608337,418.367249 
	C781.632996,418.441132 777.662476,418.770660 772.808777,418.954865 
M780.299011,640.851074 
	C780.778931,638.946899 779.919189,637.324036 778.285950,636.946960 
	C776.458801,636.525085 774.960388,637.811157 773.933960,639.699951 
	C775.327271,640.976501 776.715637,642.248596 778.281311,643.683044 
	C778.872986,642.900818 779.446106,642.143188 780.299011,640.851074 
M777.617371,351.992493 
	C775.185364,351.571564 775.185364,351.571564 774.597351,356.780396 
	C776.869324,356.080902 778.776062,355.444519 777.617371,351.992493 
M772.374146,625.450134 
	C772.623352,625.245911 772.909424,625.072083 773.110962,624.828430 
	C773.297913,624.602417 773.394592,624.301636 773.624817,623.849548 
	C771.854736,624.297424 770.033264,623.977844 768.405334,625.477417 
	C769.525269,627.311829 770.240845,630.087708 772.374146,625.450134 
z"/>
<path fill="#000000" opacity="1.000000" stroke="none" 
	d="
M127.156738,431.223145 
	C136.051437,420.538239 147.458755,414.195618 159.969421,409.051849 
	C159.712585,405.069275 160.038483,400.846283 153.904831,401.203857 
	C152.345703,401.294769 151.043732,400.196991 150.162109,398.961853 
	C142.729248,388.548553 134.134537,378.939941 128.427887,367.326294 
	C126.767014,363.946228 126.128868,360.368774 125.837517,356.742859 
	C125.365479,350.868134 127.956375,346.068756 132.214874,344.206482 
	C137.022186,342.104187 144.836151,343.782990 148.332733,347.748291 
	C149.632309,349.222107 150.585541,351.492554 153.000854,350.703522 
	C154.893356,350.085236 155.214874,347.974152 155.680679,346.210815 
	C161.410385,324.521484 175.711639,312.715668 197.527023,308.560272 
	C215.132202,305.206787 229.509537,310.955383 242.785980,321.748383 
	C250.300583,327.857330 256.475403,334.834747 259.924225,344.029175 
	C260.943542,346.746613 261.118927,346.680817 264.685272,348.438538 
	C266.353210,341.634735 270.846588,338.175690 277.733978,337.664978 
	C282.967896,337.276855 286.438904,339.767120 288.177002,344.442383 
	C290.052063,349.486145 290.789612,354.687653 289.357117,360.104065 
	C286.145905,372.245789 280.603912,383.461639 275.671021,394.909729 
	C273.402283,400.174927 269.171783,398.843567 265.247894,396.712158 
	C262.470612,405.698456 262.547211,405.595459 269.569733,410.819183 
	C281.581818,419.754517 292.015076,430.078400 298.940552,443.661865 
	C301.803345,449.276917 305.595795,454.415009 308.909943,459.804169 
	C310.605042,462.560577 313.243408,464.831482 312.625946,468.727142 
	C312.360901,470.399323 314.390472,471.420105 315.560333,472.556091 
	C323.731140,480.490082 330.646393,489.411560 336.704315,499.035339 
	C339.361908,503.257263 340.701111,507.721344 340.371704,512.758667 
	C340.014221,518.226013 338.971069,523.640442 339.259430,529.163025 
	C339.407288,531.994934 336.945709,533.292908 334.684021,535.005737 
	C340.685211,540.007324 340.849915,546.045349 339.551270,552.883850 
	C338.411102,558.887573 339.888916,565.153748 338.705078,571.289856 
	C337.322418,578.456360 333.696777,584.282166 328.648499,589.321533 
	C316.386993,601.561401 304.072021,613.747681 291.780823,625.957825 
	C287.736359,629.975647 284.274719,634.400696 281.730591,639.555603 
	C280.994568,641.046814 280.888123,642.123169 281.497559,643.700928 
	C285.958588,655.249695 287.044189,667.183655 284.359314,679.251526 
	C282.206970,688.925842 273.973480,692.024170 265.623291,686.490662 
	C265.431824,690.278320 264.493561,693.665161 260.170227,694.213013 
	C254.826035,694.890137 250.734085,692.941650 248.643066,687.462097 
	C247.903244,688.415466 247.493378,689.182983 246.874329,689.700073 
	C244.127182,691.994812 241.093414,693.965088 237.361328,692.914001 
	C233.332977,691.779480 233.350281,687.901794 232.887100,684.719543 
	C232.488190,681.978943 232.804352,679.134216 232.804352,675.694153 
	C227.798447,677.326721 222.107315,683.897827 217.794434,673.692566 
	C216.767288,678.432861 213.827118,679.647522 210.030380,679.680359 
	C206.169800,679.713806 204.576904,676.981873 202.918198,674.250183 
	C200.240585,669.840576 197.580429,665.420410 194.890961,661.018066 
	C194.732773,660.759094 194.379745,660.619141 193.477997,659.947815 
	C191.993439,666.420532 190.207062,672.471497 190.033829,678.904541 
	C189.962494,681.553955 189.780273,684.234253 189.286850,686.831787 
	C187.981857,693.701721 182.077148,695.857117 176.713837,691.521118 
	C175.842270,690.816528 175.309769,689.823914 173.843140,689.892639 
	C166.089478,690.255432 162.962204,687.189026 162.517593,678.510193 
	C160.687836,680.185913 158.913483,681.570801 156.471313,680.614441 
	C154.286377,679.758911 152.821060,678.179688 152.225494,676.007629 
	C149.446335,665.871643 146.791641,655.749451 150.512039,645.183472 
	C151.286636,642.983643 152.039673,640.830139 153.315567,638.699341 
	C152.315048,637.220093 150.331848,638.501709 149.129028,636.862061 
	C140.096176,624.548828 127.046120,616.766113 115.391060,607.407532 
	C108.900681,602.195984 102.415268,596.978088 95.899582,591.798279 
	C86.003922,583.931519 83.613434,572.881348 82.779556,561.140625 
	C82.674316,559.658875 82.457909,558.158203 82.067978,556.727722 
	C79.444458,547.102783 80.259132,544.312073 88.045319,537.705872 
	C83.706810,535.012024 83.475967,530.774292 83.835129,526.342957 
	C83.848587,526.176880 83.901703,526.002686 83.869690,525.845886 
	C80.286377,508.297424 90.573784,496.580200 101.056458,484.943634 
	C105.299789,480.233246 109.788857,475.791168 114.921692,472.032166 
	C115.805603,471.384827 116.850212,470.760040 116.979248,469.134186 
	C112.938210,468.395416 110.198868,471.601807 106.361427,472.177643 
	C106.126816,469.630859 107.986214,468.201233 108.993164,466.505524 
	C114.180351,457.770447 119.550262,449.143372 122.576683,439.322571 
	C123.465897,436.436981 125.019218,433.857147 127.156738,431.223145 
M221.284134,389.980530 
	C218.420410,388.142456 221.137192,387.086670 221.926971,385.852692 
	C222.776260,384.525757 225.137054,384.587799 225.214294,381.730194 
	C216.084000,376.225037 209.173065,380.016113 203.465729,387.854736 
	C201.727905,385.414398 204.507507,383.932190 203.507126,382.129669 
	C196.767593,377.362823 195.857330,377.478699 191.669357,384.449066 
	C189.876144,387.433655 188.192963,390.550995 186.980438,393.802216 
	C185.194427,398.591064 184.276718,403.574799 185.732376,408.770203 
	C196.457733,405.748230 207.075897,403.479431 215.412415,395.439606 
	C213.312088,393.852203 212.015305,391.938995 209.734543,391.693848 
	C207.898010,391.496399 206.458603,390.933990 205.969223,389.047485 
	C205.646133,387.802094 206.105469,386.677032 207.302292,386.120239 
	C209.118820,385.275085 210.914444,385.581329 212.483627,386.750793 
	C213.404144,387.436859 214.462036,388.199921 214.934357,389.180603 
	C216.933350,393.331360 219.351685,392.191559 222.486603,390.225677 
	C225.179352,393.911041 219.404510,393.478271 219.704559,396.188080 
	C227.058655,400.470703 236.286545,400.349915 243.638855,406.577118 
	C243.814392,402.457397 243.775360,399.223724 247.164505,397.461334 
	C248.776688,396.622986 248.025330,395.047791 247.565338,393.896088 
	C244.817795,387.016418 241.136414,380.821136 234.401596,376.672760 
	C233.743088,379.363892 231.306427,379.452881 229.591354,380.378754 
	C228.977463,382.224243 230.891266,383.370422 230.132278,385.589813 
	C228.612946,390.032623 225.768677,390.497864 221.284134,389.980530 
M159.181824,497.754944 
	C153.776352,506.507263 153.948730,513.625854 159.834396,521.806458 
	C161.584488,524.238953 163.420715,526.612427 165.286652,528.957947 
	C174.360977,540.364258 177.006546,553.306885 174.623077,567.492859 
	C172.060333,582.745911 184.062561,600.376160 199.132339,603.224426 
	C204.724564,604.281433 210.528183,604.338196 215.939087,602.528931 
	C220.880295,600.876648 226.260818,605.055054 230.852310,600.974548 
	C231.396149,600.491211 232.375793,600.243530 233.140381,601.431458 
	C232.540298,602.126526 231.900909,602.867126 230.708008,604.248901 
	C238.212585,600.249268 243.711578,595.427612 248.154175,589.148438 
	C257.393311,576.089966 253.286987,560.963623 255.992844,545.920715 
	C251.270340,549.940674 251.731155,555.336182 249.270309,559.288086 
	C247.463577,558.315247 248.188141,557.140015 248.372452,556.069702 
	C250.215790,545.365601 255.706314,536.513977 262.618256,528.449524 
	C267.867462,522.324951 269.615479,515.369934 268.178955,507.541107 
	C267.936401,506.219269 267.180450,504.496033 268.108124,503.707855 
	C270.840607,501.386200 269.018463,499.244476 268.330994,496.998749 
	C267.944397,495.735931 266.803772,494.537445 267.715759,492.948212 
	C270.071075,494.103424 270.054901,496.639679 271.835297,498.386993 
	C271.619202,497.378998 271.563538,496.723846 271.339600,496.132446 
	C265.407135,480.463043 244.344513,469.936218 229.016129,480.104279 
	C220.034332,486.062347 210.837723,486.671478 201.148651,481.786285 
	C196.159683,479.270844 191.131805,475.236969 185.280609,480.181885 
	C184.966019,480.447754 184.302933,480.273468 183.813171,480.364105 
	C178.400162,481.365784 173.309067,483.254700 167.512634,486.148621 
	C172.229019,485.517395 175.457932,482.686646 179.691360,483.922729 
	C172.261856,487.329681 164.655624,490.357880 159.181824,497.754944 
M233.476532,405.133789 
	C229.173065,403.440521 224.869598,401.747284 220.793991,400.143677 
	C218.991806,404.016327 221.059021,405.910980 224.240204,407.861755 
	C228.767990,410.638245 232.922501,414.026520 237.212814,417.185577 
	C238.663193,418.253540 240.331406,419.248871 239.519745,422.819916 
	C230.142456,418.713043 223.652725,410.899078 214.620178,405.880554 
	C214.744507,408.615784 212.278992,408.994110 210.084412,410.088226 
	C218.057892,416.022797 225.565140,421.538971 232.979507,427.177277 
	C234.907990,428.643890 237.689407,429.847137 236.821732,433.079559 
	C235.119171,433.736816 234.226273,432.932465 233.300964,432.224213 
	C227.750473,427.975800 221.948685,424.011719 216.725677,419.393066 
	C212.340179,415.515045 208.121658,413.908661 202.553818,417.414886 
	C203.944031,420.049225 206.575577,421.147308 209.028427,422.382202 
	C216.524139,426.155853 222.950409,431.462646 229.457169,436.635132 
	C230.984222,437.849091 233.023926,439.171539 232.338318,441.812958 
	C229.792053,442.309784 228.302216,440.828857 226.775543,439.635376 
	C222.187897,436.048981 217.489838,432.574005 213.171448,428.682068 
	C209.554169,425.422058 207.249588,426.333740 204.749771,430.538208 
	C213.469833,433.654724 217.106323,442.052490 223.547913,447.439972 
	C232.098450,454.591339 239.517868,464.752319 253.836960,459.147675 
	C252.578064,462.132141 249.045792,463.809753 252.577576,466.607117 
	C257.722870,470.682465 264.722107,470.923218 269.799896,466.795197 
	C270.696259,466.066467 271.971558,465.635803 272.566833,464.734100 
	C275.099335,460.897919 280.686798,460.182800 282.485291,455.030365 
	C277.228943,450.409576 271.191162,446.974457 266.653198,441.759918 
	C264.508118,443.934174 266.111572,447.489410 262.170349,448.166931 
	C264.052399,438.695892 261.327301,430.762268 255.141525,424.039032 
	C250.975067,419.510559 246.292313,415.444946 242.272675,410.798431 
	C239.983246,408.151825 237.559372,406.186584 233.476532,405.133789 
M200.622849,454.109283 
	C203.837128,450.971649 207.011139,447.791321 210.277832,444.709259 
	C213.118118,442.029510 212.601044,439.917114 209.499390,438.057648 
	C203.826828,440.329773 200.242813,446.400299 192.914307,447.110535 
	C195.231140,440.891907 201.316437,439.652191 204.427750,435.322418 
	C202.421402,431.907593 200.320511,431.224152 197.220581,433.905121 
	C194.966782,435.854309 192.997147,438.556244 189.188782,438.671021 
	C188.862701,434.279572 192.268784,433.012970 194.697754,431.610260 
	C198.778198,429.253906 199.119110,426.127869 198.265472,422.192413 
	C193.739044,422.729156 191.317291,427.710602 186.033112,427.143036 
	C187.662399,419.632874 200.569824,420.069183 197.070816,409.838348 
	C192.928986,409.844940 189.031662,410.653595 186.271790,413.835815 
	C182.431213,418.264008 177.870865,421.898376 173.734192,425.988281 
	C167.015152,432.631287 162.050964,440.116669 163.198502,450.228058 
	C163.288467,451.020782 163.258850,451.928925 162.110764,451.989716 
	C159.985703,451.048340 161.144028,448.078491 158.782639,447.011078 
	C154.923019,449.897919 150.977386,452.876282 147.000168,455.811890 
	C145.155228,457.173645 145.334122,458.660492 146.134674,460.615631 
	C147.820541,464.732941 151.087250,467.973236 151.918732,472.684296 
	C152.304108,474.867889 154.522781,477.518219 158.347595,475.921265 
	C161.526886,474.593811 165.146988,474.367859 168.469177,473.326508 
	C173.927750,471.615601 174.683533,469.975739 172.562378,464.308197 
	C180.853378,467.959167 187.371735,464.622314 193.530991,459.945953 
	C195.780334,458.238129 197.911133,456.374176 200.622849,454.109283 
M216.705200,365.434875 
	C220.062973,364.008972 221.432312,361.100647 222.778244,357.936340 
	C226.367493,349.497986 235.726547,345.512939 241.899490,349.844299 
	C240.080276,350.345123 238.432510,350.798767 236.651337,351.289154 
	C237.468155,352.386932 238.864731,352.148071 239.110535,353.485901 
	C237.440903,355.790009 232.794556,355.341400 232.672531,359.905243 
	C235.212082,358.566071 236.962570,356.187408 239.798752,357.673615 
	C240.656845,358.123322 241.546341,359.129944 242.330887,357.859192 
	C243.990967,355.170288 245.102631,357.182922 245.995209,358.339386 
	C247.545364,360.347778 248.178589,362.737000 248.393555,365.304352 
	C248.599915,367.768799 249.832291,369.470703 252.750336,369.169128 
	C252.149155,374.754303 247.246292,377.071228 243.870255,380.455139 
	C244.842758,382.434570 245.180710,384.540100 247.431931,385.136444 
	C260.324707,375.451141 257.941193,350.631989 243.447952,342.664978 
	C234.897629,337.964813 224.664017,340.421692 219.203384,348.521027 
	C217.936325,350.400330 216.785278,352.357819 215.600586,354.247833 
	C213.477676,353.504364 213.107056,351.686279 212.153427,350.398407 
	C203.452026,338.647217 187.564789,338.554016 179.155136,350.456146 
	C172.729263,359.550690 172.315765,369.413147 177.177231,379.274261 
	C179.086319,383.146667 181.508301,387.112762 186.501968,388.080750 
	C187.984940,385.908081 189.384491,384.087952 189.775879,381.673798 
	C186.089340,378.959961 181.539368,377.083069 180.749390,371.837006 
	C182.364136,371.063019 182.446442,372.934998 183.699020,372.899231 
	C184.871170,371.160004 184.983994,369.190460 184.721573,367.017273 
	C184.343384,363.885254 184.980789,360.523346 187.705307,359.017853 
	C190.596054,357.420532 192.416840,355.603912 192.936722,352.447540 
	C191.788223,351.739410 189.914230,353.112854 189.128983,351.258789 
	C189.474670,350.250275 190.240295,349.947845 191.061554,349.740906 
	C199.872269,347.520538 207.754791,352.112427 210.720795,361.345184 
	C211.586563,364.040222 212.222000,366.646179 216.705200,365.434875 
M272.938141,573.085876 
	C272.427643,574.158813 271.620544,575.159912 271.961975,577.133484 
	C273.867157,574.078918 275.339661,571.499390 277.018829,569.062195 
	C286.424133,555.411377 299.659302,546.804565 314.740509,540.710571 
	C317.749207,539.494812 320.386475,538.088013 321.552185,534.688660 
	C301.361908,525.998047 290.278748,508.648407 278.609253,489.913818 
	C278.121918,494.466370 278.292542,497.489258 278.760193,500.573151 
	C281.223389,516.816956 284.157654,533.020447 283.284302,549.575989 
	C283.099518,553.078430 282.773346,556.457520 280.801758,559.577393 
	C278.140717,563.788391 275.773163,568.184875 272.938141,573.085876 
M161.482574,351.007660 
	C160.935089,355.848328 159.275116,360.662567 160.773224,365.552399 
	C163.217331,365.490906 161.893799,361.730103 164.499924,362.256714 
	C165.843689,363.642090 163.811356,365.167114 165.631302,367.464050 
	C164.775253,363.587952 168.591904,364.622559 169.071365,362.093872 
	C171.018478,351.824493 176.065109,343.829193 186.152206,339.731720 
	C186.304459,339.669861 186.544006,339.591644 186.569183,339.481445 
	C187.871567,333.780090 192.722504,335.406891 196.434174,334.701508 
	C198.143494,334.376678 200.034805,335.359100 201.625549,334.125610 
	C201.438293,331.974915 198.021454,332.781738 198.434341,329.391815 
	C203.558029,332.658844 209.793289,329.798431 214.642746,333.659149 
	C215.844879,333.228027 215.807953,331.119171 217.539337,331.449005 
	C218.458374,331.991943 217.837219,333.554108 219.380768,333.771637 
	C222.935150,332.050323 226.657181,330.250854 231.344543,329.937073 
	C229.968109,333.048126 231.675522,333.534332 233.856873,333.633789 
	C236.178528,333.739594 239.038574,333.475800 240.286575,335.543701 
	C242.391205,339.031006 245.950714,338.842010 248.903717,340.434052 
	C249.653854,338.337891 248.567261,337.076202 247.653503,336.058960 
	C240.567459,328.170349 232.731873,321.324707 222.211075,318.318939 
	C219.116684,317.434845 215.816284,316.557251 212.869781,317.604736 
	C205.125122,320.357788 196.266113,320.092590 189.675751,326.086914 
	C188.744736,326.933746 187.369217,328.583160 185.825699,327.041779 
	C183.274277,324.493958 181.701355,326.661499 179.879974,327.998627 
	C178.297791,329.160217 177.397171,331.163330 175.358124,331.725464 
	C171.914261,329.524139 171.629318,329.488037 169.436676,332.469604 
	C165.529282,337.782959 163.138733,343.790924 161.482574,351.007660 
M101.862167,537.293335 
	C100.480843,537.528931 98.875763,537.025940 97.803848,538.480774 
	C100.325600,541.457031 103.726639,542.542114 107.264771,543.626465 
	C121.746902,548.065125 135.337296,554.112366 145.320267,566.161682 
	C149.737793,571.493530 154.413498,576.630798 158.096680,582.567871 
	C154.209274,573.031372 149.565704,563.942078 142.618668,556.256287 
	C140.452011,553.859253 139.470016,551.350098 139.680389,548.145325 
	C140.191696,540.355896 141.220032,532.629456 142.100174,524.880127 
	C143.095825,516.113586 144.739166,507.363312 144.369415,497.696716 
	C137.543732,507.811829 130.804779,516.861633 122.548958,524.646118 
	C116.739960,530.123413 110.987564,535.779358 101.862167,537.293335 
M232.833862,664.133301 
	C233.401352,659.299500 230.356705,654.095032 233.912354,649.633179 
	C236.004318,647.008057 236.152267,644.532837 235.666580,641.360107 
	C235.364182,639.384644 236.441254,636.811035 239.553970,636.920959 
	C238.182159,631.943054 234.282639,630.118591 229.927032,632.480591 
	C226.603012,634.283203 225.021652,637.213867 224.342484,640.850342 
	C223.491776,645.405396 222.652466,649.982483 221.411972,654.439819 
	C219.877472,659.953491 220.142654,665.434387 220.485687,671.411621 
	C222.443726,669.549561 222.096588,665.956238 225.238815,666.458923 
	C227.846497,666.876099 226.921753,670.627441 229.401169,671.862305 
	C231.247681,669.885559 232.835419,667.865173 232.833862,664.133301 
M246.640015,680.918091 
	C247.328537,674.187805 249.906738,668.063904 252.724136,662.020630 
	C254.298294,658.644043 255.277237,655.119629 254.887665,651.389160 
	C254.670670,649.311218 253.545670,646.867981 251.168365,648.428650 
	C247.659805,650.731995 243.265350,653.013550 241.826767,656.874451 
	C238.624710,665.468445 234.514618,674.075134 236.413284,683.694458 
	C238.074417,682.405945 237.612244,678.226807 241.200455,679.391785 
	C243.674591,680.195068 242.763351,683.840393 244.972015,685.725769 
	C245.607391,684.091736 246.081055,682.873535 246.640015,680.918091 
M204.527161,645.031677 
	C203.555954,642.707947 202.288544,640.576294 200.286591,638.993469 
	C197.858444,637.073730 193.586151,638.690247 194.552048,640.975647 
	C196.077240,644.584351 193.259842,645.997498 192.678757,648.419434 
	C192.351578,649.783020 192.272720,651.093506 193.048447,652.251892 
	C197.221359,658.483765 201.444473,664.682007 205.650253,670.891785 
	C206.558365,666.760132 206.787491,663.060486 213.124008,666.106750 
	C209.734787,658.654541 206.887421,652.333923 204.527161,645.031677 
M177.438324,679.564453 
	C177.651367,681.757141 175.316833,684.129822 177.814316,686.379089 
	C179.638748,683.515564 178.766434,678.901428 182.761353,678.177002 
	C185.591751,677.663757 184.695053,681.683594 187.177368,684.069702 
	C184.248871,676.649902 187.417801,670.893311 188.294189,664.916138 
	C188.803009,661.445801 190.097824,657.539368 188.098282,654.714844 
	C185.959839,651.694092 185.600754,648.910583 186.524765,645.621521 
	C180.925461,645.687012 179.369476,647.317139 179.327911,653.014038 
	C179.265030,661.636658 179.917664,670.300110 177.438324,679.564453 
M173.704498,681.309631 
	C174.069229,673.370728 172.484360,665.284119 174.890198,657.523376 
	C175.997833,653.950378 174.975784,651.441528 172.880310,648.867493 
	C172.141144,647.959595 171.588257,646.833923 170.203613,646.968018 
	C168.622528,647.121033 167.822174,648.398499 167.616379,649.667480 
	C165.877060,660.393127 165.651993,671.210205 165.627060,682.072998 
	C166.442780,681.250732 166.759369,680.347839 167.155243,679.481201 
	C167.827560,678.009583 168.185776,675.978577 170.311279,676.167542 
	C172.333069,676.347290 172.568329,678.332581 173.080719,679.889038 
	C173.281128,680.497864 173.435089,681.121948 173.704498,681.309631 
M257.842590,680.173767 
	C260.550568,681.598633 259.872192,685.052002 262.110870,687.554199 
	C262.774048,680.904358 262.789246,674.798645 265.224182,669.020203 
	C268.556274,661.112732 268.050629,659.735657 261.582184,653.828674 
	C259.120300,654.696655 258.177277,656.809937 257.449677,659.040833 
	C255.306885,665.611023 257.153412,672.558960 255.651596,679.206177 
	C255.618591,679.352234 256.671570,679.743713 257.842590,680.173767 
M276.576752,661.343262 
	C276.129639,659.755615 275.399750,658.447937 273.450531,659.210632 
	C270.778168,660.256470 270.855499,662.752075 271.500824,664.701599 
	C273.329010,670.224731 273.090179,675.356506 270.096558,680.418457 
	C268.772064,682.658081 269.375763,684.553040 272.067841,685.567322 
	C271.008667,680.378967 275.423553,679.961243 278.314453,678.945618 
	C281.604767,677.789795 282.282013,675.872925 282.793793,672.766846 
	C283.713654,667.184326 279.552795,665.022461 276.576752,661.343262 
M212.950958,659.496582 
	C214.211212,661.062256 214.538971,663.364563 217.039963,664.841614 
	C217.621307,658.682739 218.997177,653.248718 220.601639,647.859558 
	C221.141739,646.045471 220.988419,644.093567 218.972092,643.088745 
	C215.724411,641.470276 212.526428,641.951172 209.432205,643.631714 
	C207.343521,644.765991 207.759171,646.448975 208.130051,648.375977 
	C208.871262,652.227173 210.763184,655.521240 212.950958,659.496582 
M273.933075,387.584412 
	C278.668762,378.295441 284.617767,369.313995 281.050110,358.263702 
	C280.229828,358.993744 278.134613,359.365723 278.388428,361.415131 
	C279.438202,369.891205 274.480591,375.825745 269.957581,381.997986 
	C267.144287,385.837036 268.129395,389.192566 271.293854,392.319061 
	C272.987549,391.188141 273.322906,389.717896 273.933075,387.584412 
M155.548599,392.881805 
	C155.581543,388.973175 154.101425,386.025665 150.873657,383.550995 
	C146.135971,379.918640 141.146744,376.151581 139.777802,369.890076 
	C139.072754,366.665131 137.718170,364.375519 133.980164,362.056427 
	C137.296173,366.409546 134.845367,371.023865 137.576294,374.610168 
	C142.308487,380.824615 146.851212,387.183105 151.495590,393.464752 
	C152.726593,395.129700 154.043488,396.521576 155.548599,392.881805 
M152.379898,647.651672 
	C149.268158,661.196899 150.529526,665.281677 159.766586,670.488342 
	C157.200714,665.075989 157.835190,659.951538 159.293137,654.689331 
	C160.558365,650.122742 157.184723,646.521851 152.379898,647.651672 
M258.717010,417.789398 
	C257.581299,411.637115 256.287079,405.600800 248.351852,403.773834 
	C249.127243,407.523224 250.078842,410.798157 250.537262,414.188721 
	C251.036575,417.881897 255.937012,420.133148 258.717010,417.789398 
z"/>
<path fill="#000000" opacity="1.000000" stroke="none" 
	d="
M471.177979,531.907349 
	C481.686920,528.338013 492.061218,527.371399 502.496338,529.784912 
	C509.230347,531.342407 514.962219,534.818176 518.455688,541.328369 
	C498.213501,530.362549 479.715332,533.351624 462.472107,547.372131 
	C462.567352,542.631897 464.366425,541.252136 481.960815,532.747375 
	C472.928558,533.725342 465.086578,536.203308 458.144806,543.654175 
	C459.650696,537.766418 461.574341,536.197327 471.177979,531.907349 
z"/>
<path fill="#000000" opacity="1.000000" stroke="none" 
	d="
M525.750183,513.252930 
	C519.800415,512.721802 517.759155,510.764709 517.680420,506.149109 
	C517.611572,502.115387 519.797119,499.787598 523.466980,499.221039 
	C527.633545,498.577759 530.731812,500.635803 531.759277,504.715332 
	C532.910767,509.287689 530.316040,511.883057 525.750183,513.252930 
z"/>
<path fill="#000000" opacity="1.000000" stroke="none" 
	d="
M463.814453,512.181641 
	C457.599457,514.143494 453.719360,512.624146 452.692505,508.027039 
	C451.874298,504.364044 453.020782,501.434448 456.496063,499.681580 
	C460.049103,497.889526 463.130432,499.008087 465.393768,501.841217 
	C468.271271,505.443146 467.519531,508.950073 463.814453,512.181641 
M462.566284,507.269867 
	C462.851776,505.389496 462.431183,503.869385 460.337494,505.381683 
	C459.188782,506.211487 458.203247,507.182556 456.365540,507.132172 
	C458.494934,509.989532 460.314575,510.362305 462.566284,507.269867 
z"/>
<path fill="#000000" opacity="1.000000" stroke="none" 
	d="
M493.466583,578.296021 
	C490.787628,579.782349 488.368317,580.084900 486.336395,578.055176 
	C484.188385,575.909607 484.035248,573.362183 485.862701,570.902466 
	C487.939667,568.106873 490.541992,568.785400 492.831818,570.419189 
	C495.741943,572.495605 496.110107,575.181213 493.466583,578.296021 
z"/>
<path fill="#000000" opacity="1.000000" stroke="none" 
	d="
M488.651123,388.798584 
	C486.609161,389.476318 484.859741,391.251068 483.110779,388.946014 
	C482.227905,387.782410 482.172638,386.406647 483.165680,385.327759 
	C485.049713,383.280853 487.099579,384.434906 488.994141,385.373047 
	C490.320923,386.029968 491.445831,387.010223 491.670593,388.634552 
	C490.786346,389.764587 489.852631,388.743347 488.651123,388.798584 
z"/>
<path fill="#000000" opacity="1.000000" stroke="none" 
	d="
M496.797485,387.612793 
	C497.721313,384.986633 499.486603,383.574799 501.878815,383.103119 
	C503.901123,382.704376 505.058197,383.911713 505.167145,385.806702 
	C505.276886,387.717010 504.171967,389.482056 502.253479,388.431610 
	C500.307709,387.366180 498.455109,389.267426 496.797485,387.612793 
z"/>
<path fill="#000000" opacity="1.000000" stroke="none" 
	d="
M489.977661,391.011719 
	C493.242401,390.266602 496.341431,391.447693 499.285828,389.805908 
	C496.571381,394.220551 493.163666,394.534180 489.977661,391.011719 
z"/>
<path fill="#000000" opacity="1.000000" stroke="none" 
	d="
M765.704956,535.559082 
	C759.260132,536.462891 753.986450,539.203613 748.607727,542.713501 
	C749.924438,536.102417 761.533203,530.114746 774.406616,528.790466 
	C791.642029,527.017517 804.628906,531.922485 809.112976,542.721680 
	C805.860901,540.714722 803.304688,539.137207 799.741760,536.938416 
	C801.662659,540.868408 805.007690,542.718689 805.763916,548.020813 
	C793.952698,536.517944 780.561829,534.109497 765.704956,535.559082 
z"/>
<path fill="#000000" opacity="1.000000" stroke="none" 
	d="
M810.320984,511.840271 
	C807.286926,508.887604 806.885376,505.755463 808.636475,502.475189 
	C810.006104,499.909607 812.430908,498.710541 815.296814,498.877502 
	C818.407471,499.058685 820.526978,500.853973 821.713257,503.701233 
	C822.866150,506.468201 822.266663,508.976471 820.204529,511.042999 
	C817.344910,513.908630 814.087708,514.063538 810.320984,511.840271 
z"/>
<path fill="#000000" opacity="1.000000" stroke="none" 
	d="
M752.958374,499.711670 
	C756.992737,502.341034 758.423218,505.586243 756.218018,509.678223 
	C754.253479,513.323547 750.796692,514.126709 747.204468,512.890564 
	C743.618347,511.656616 742.284668,508.560059 742.784058,504.871094 
	C743.390198,500.393311 747.285156,498.347992 752.958374,499.711670 
z"/>
<path fill="#000000" opacity="1.000000" stroke="none" 
	d="
M782.207703,579.098755 
	C778.225403,579.961121 775.545349,578.917969 774.814026,575.036377 
	C774.285400,572.230957 775.768677,570.158203 778.299072,569.175476 
	C781.035095,568.112854 783.270081,569.497070 784.554810,571.788025 
	C786.136780,574.609192 785.482239,577.195190 782.207703,579.098755 
z"/>
<path fill="#000000" opacity="1.000000" stroke="none" 
	d="
M778.009399,391.012421 
	C776.348206,389.593109 774.924133,391.061340 773.393005,391.365967 
	C772.101135,391.622955 771.180481,391.020233 770.564026,389.876312 
	C770.047119,388.917084 769.996521,387.977936 770.667908,387.100220 
	C771.998718,385.360596 773.949219,385.164948 775.538940,386.138702 
	C777.096863,387.092987 780.507629,387.368256 778.236084,390.883850 
	C777.977173,390.994965 778.009399,391.012421 778.009399,391.012421 
z"/>
<path fill="#000000" opacity="1.000000" stroke="none" 
	d="
M777.959106,390.988892 
	C780.942688,392.465057 783.965393,391.723114 787.180115,391.222046 
	C785.992065,394.453186 783.377686,394.797272 780.481628,394.438019 
	C777.755737,394.099854 777.662720,393.931091 777.760376,391.138489 
	C778.009399,391.012421 777.977173,390.994965 777.959106,390.988892 
z"/>
<path fill="#000000" opacity="1.000000" stroke="none" 
	d="
M242.117462,541.423706 
	C222.587143,527.669495 203.482117,529.755188 184.196777,541.930603 
	C183.922516,539.912842 185.413055,538.955139 186.529251,537.922363 
	C197.370193,527.891724 226.404312,524.511780 238.523087,534.535645 
	C240.585770,536.241760 242.782547,537.842346 244.051575,540.204041 
	C245.160446,542.267639 244.138733,542.570801 242.117462,541.423706 
z"/>
<path fill="#000000" opacity="1.000000" stroke="none" 
	d="
M178.573837,503.763000 
	C180.186951,500.161041 182.791855,498.523926 186.250473,498.915680 
	C189.451340,499.278290 191.643341,501.262115 192.645325,504.426697 
	C193.574799,507.362274 192.333557,509.644836 190.332642,511.545105 
	C187.876083,513.878113 184.831543,514.067932 182.057068,512.489929 
	C178.952179,510.723999 177.288330,507.931519 178.573837,503.763000 
z"/>
<path fill="#000000" opacity="1.000000" stroke="none" 
	d="
M257.406738,503.777222 
	C258.037384,509.047791 256.042419,512.502930 252.141922,513.190247 
	C248.252426,513.875549 245.283783,512.481445 243.737305,508.747955 
	C242.263702,505.190430 243.859818,501.256592 247.462936,499.641998 
	C251.917130,497.646118 255.097809,499.317047 257.406738,503.777222 
z"/>
<path fill="#000000" opacity="1.000000" stroke="none" 
	d="
M213.134674,578.846436 
	C209.848831,574.935608 209.736481,571.678406 212.658340,569.745789 
	C215.912338,567.593506 218.335297,569.248352 220.275726,571.842102 
	C221.447464,573.408386 221.508392,575.268250 220.436234,576.986816 
	C218.731979,579.718628 216.203430,579.819641 213.134674,578.846436 
z"/>
</svg>