<svg version="1.1" id="Layer_1" xmlns="http://www.w3.org/2000/svg" xmlns:xlink="http://www.w3.org/1999/xlink" x="0px" y="0px"
	 width="100%" viewBox="0 0 576 352" enable-background="new 0 0 576 352" xml:space="preserve">
<path fill="#000000" opacity="1.000000" stroke="none" 
	d="
M519.184570,218.786102 
	C517.674622,214.678192 516.537903,210.837738 514.368042,207.458038 
	C506.553223,210.366394 502.466766,216.320923 500.070160,223.839935 
	C497.818390,230.904556 494.328613,237.305313 489.259338,242.791641 
	C488.587769,243.518478 487.765625,244.336151 487.567169,245.234177 
	C485.797913,253.239578 478.909760,255.567963 472.638153,257.007568 
	C463.481079,259.109467 451.393524,256.825775 442.877319,247.120377 
	C434.494965,237.567490 429.266663,226.878647 424.222290,215.006729 
	C420.138306,223.415497 419.428986,232.100128 417.442474,240.415451 
	C415.893524,246.898956 415.743896,246.997604 409.133606,245.910385 
	C399.242645,244.283554 390.456238,240.077942 381.874176,235.164169 
	C378.946655,233.487991 378.768585,231.686798 380.308624,229.087540 
	C384.128632,222.640182 387.900360,216.164215 391.695618,209.702164 
	C392.454498,208.410019 393.247772,207.137924 393.997375,205.840500 
	C397.042938,200.569427 398.035736,195.861954 394.462524,189.752533 
	C389.636658,181.501358 387.777802,172.053726 389.657684,162.264542 
	C391.461090,152.873749 397.700958,148.021957 407.057678,149.304565 
	C409.611847,149.654694 410.989532,148.711670 412.702484,147.191101 
	C422.426392,138.559402 432.119476,129.840057 444.727722,125.442619 
	C450.472137,123.439095 456.312653,122.523781 462.416931,123.457100 
	C465.881805,123.986870 469.396057,123.890060 472.865997,123.198380 
	C480.602936,121.656128 487.860413,123.234154 494.494629,127.188042 
	C503.648987,132.643890 512.767090,138.212540 520.535828,145.639160 
	C521.940247,146.981689 523.439819,147.548782 525.405334,147.695496 
	C531.690613,148.164597 535.962708,151.460678 537.855347,157.534821 
	C539.601746,163.139771 541.228455,169.055817 539.710266,174.726608 
	C536.923645,185.135406 540.350647,194.046768 544.959534,202.837723 
	C548.598816,209.779297 552.736206,216.452393 557.547974,222.643890 
	C559.752075,225.479889 559.909607,227.204651 556.653992,229.429688 
	C548.407593,235.065659 540.557861,241.263870 531.558899,245.778931 
	C527.851135,247.639252 526.236755,246.962997 525.313354,242.875381 
	C523.516907,234.923599 521.343384,227.057053 519.184570,218.786102 
M495.446991,153.604599 
	C491.987274,152.896591 489.134979,148.468491 484.913483,152.342850 
	C488.617737,152.888367 492.322021,153.433899 496.436737,154.539368 
	C499.902435,158.079651 498.745026,164.538239 504.229736,166.878693 
	C504.711548,167.084305 505.177307,168.650787 504.890320,169.128632 
	C502.241699,173.538757 502.673126,179.725555 497.737885,182.693634 
	C494.718079,184.509750 493.194153,186.809464 492.716644,190.417068 
	C496.358521,192.703934 500.326935,194.585541 504.577911,195.146240 
	C511.275757,196.029694 510.636444,187.581604 515.479309,186.201004 
	C515.437317,183.507553 513.142212,181.024063 515.173157,178.793243 
	C518.290894,175.368637 517.457214,171.787445 515.045166,169.079590 
	C509.621246,162.990479 503.304932,157.824753 495.446991,153.604599 
M482.153778,156.290390 
	C470.121765,156.079422 458.163452,156.655563 446.200714,159.883453 
	C449.864166,154.776016 455.791138,152.749176 459.028900,148.713181 
	C452.537567,144.126923 447.065277,148.669647 441.262817,151.262360 
	C440.655121,151.533905 440.054810,151.823166 439.459747,152.121521 
	C426.314484,158.712509 416.656982,168.485184 411.453705,182.514481 
	C412.571960,183.936554 415.111633,183.769501 415.103424,185.810623 
	C415.085876,190.173508 417.933197,190.482040 421.138733,190.311295 
	C422.740204,190.225983 424.202240,190.977020 423.980011,192.353363 
	C423.235504,196.965225 427.199310,197.203415 429.716248,199.338303 
	C436.930420,192.287720 445.737823,191.036499 455.227936,191.558350 
	C462.033325,191.932602 468.877625,191.642578 475.703827,191.573639 
	C478.809570,191.542282 481.885040,191.198502 486.083191,189.454529 
	C478.287292,184.388031 469.899811,188.476776 463.029694,184.804230 
	C472.163666,182.934677 481.691742,185.212219 490.590454,182.290863 
	C490.137115,178.229126 488.305115,177.333221 484.496826,177.746948 
	C478.537567,178.394348 472.420654,178.648697 466.184235,176.857071 
	C467.799835,174.194778 469.815125,174.949921 471.511322,174.897339 
	C476.835175,174.732361 482.173523,174.878342 487.486877,174.570068 
	C494.069183,174.188156 494.474335,173.314209 491.743317,166.718475 
	C483.521332,167.213318 475.198853,167.730255 466.453156,167.136520 
	C467.751678,164.135284 469.645844,164.893707 471.146454,164.758270 
	C475.121857,164.399490 479.104095,164.088852 483.090088,163.885864 
	C485.493958,163.763428 486.668701,162.890961 486.692688,160.259445 
	C486.717224,157.563751 485.938232,156.083023 482.153778,156.290390 
M465.238739,200.339020 
	C461.796417,201.339447 458.525116,200.848953 456.566895,197.783325 
	C454.016785,193.791061 452.040070,195.392944 450.171295,198.027618 
	C446.494354,203.211456 443.822937,208.922073 441.917542,214.989212 
	C438.502716,225.862610 442.388000,232.023849 453.655243,234.026245 
	C461.653625,235.447693 469.579254,234.787888 477.442932,233.445007 
	C485.612854,232.049805 489.539978,226.719620 488.747681,218.553940 
	C487.994965,210.796341 485.346649,203.706665 480.719696,197.370956 
	C478.842651,194.800674 477.052856,194.204941 474.758575,196.888168 
	C472.816101,199.160019 470.465881,200.728638 467.221588,200.424881 
	C466.682098,197.527649 469.394806,197.294006 470.794739,195.745697 
	C467.016113,195.745697 463.718414,195.745697 459.591919,195.745697 
	C462.083588,197.349106 464.855682,196.905884 465.238739,200.339020 
M461.031860,249.621506 
	C464.523651,249.607285 468.055450,249.926483 471.499359,249.513168 
	C480.090332,248.482147 485.057465,242.634430 485.011169,233.783844 
	C483.247925,234.488373 481.587341,235.151871 479.711060,235.901566 
	C482.437134,238.035736 480.758118,239.125809 478.890350,240.039337 
	C472.381287,243.222885 465.485291,244.259842 458.489349,242.488632 
	C454.465118,241.469803 450.010925,240.809753 447.768036,236.135010 
	C447.048248,234.634781 444.864502,233.558578 442.765411,233.278656 
	C443.489502,241.753143 449.366669,247.211258 461.031860,249.621506 
M502.993713,153.659241 
	C499.298553,150.522919 496.818604,146.434647 494.617188,142.644669 
	C488.713135,147.729385 487.978394,139.571320 484.018829,139.148621 
	C480.098419,144.395676 478.437164,136.826797 475.191193,136.870117 
	C471.845184,141.850677 471.845184,141.850677 464.890076,134.663101 
	C463.709015,135.150665 462.608704,135.754852 462.127991,137.551453 
	C466.720490,140.002609 466.595703,144.137222 465.086304,148.721954 
	C468.044037,149.268616 470.583252,151.408920 472.833832,147.871582 
	C475.666260,143.419754 479.110199,142.434357 483.829987,144.677551 
	C490.133453,147.673386 496.364044,150.822525 502.993713,153.659241 
M437.894440,141.707535 
	C434.763885,144.980301 432.100372,148.577209 430.105164,152.724579 
	C438.062592,147.885880 447.297943,145.713470 455.292816,139.688431 
	C448.790619,135.909454 443.710693,140.258881 437.894440,141.707535 
M491.780548,201.004272 
	C492.283691,199.664307 493.429688,198.516266 492.975159,196.634155 
	C490.977142,195.436752 488.838287,194.723877 485.969727,195.715729 
	C487.497803,198.542160 488.831696,201.009384 490.381927,203.876801 
	C490.967957,202.708252 491.257751,202.130402 491.780548,201.004272 
M528.638245,162.319992 
	C531.659485,165.680954 530.658997,170.342728 532.347900,175.140762 
	C533.388672,164.451843 531.689941,160.467590 526.076660,159.239441 
	C526.193542,160.614334 527.680969,160.803741 528.638245,162.319992 
M438.977844,201.393967 
	C439.416077,202.413956 439.854309,203.433960 440.529510,205.005585 
	C442.249939,202.003311 444.058868,199.728882 443.938416,196.271744 
	C440.863739,196.758804 437.954102,196.676910 438.977844,201.393967 
M401.781372,171.709015 
	C401.781372,171.108994 401.781372,170.508972 401.781372,169.908951 
	C399.627869,174.941406 402.094421,179.280869 403.224457,183.835571 
	C405.279694,179.586365 400.522858,176.492249 401.781372,171.709015 
M496.312836,167.876144 
	C495.185822,169.365097 494.550079,170.910095 497.006287,171.544128 
	C498.321014,171.883499 499.860321,171.154816 500.074249,169.759995 
	C500.451294,167.301895 498.621918,167.349548 496.312836,167.876144 
M490.212006,158.571320 
	C489.187805,159.584244 489.016785,160.778107 490.396240,161.370834 
	C492.037415,162.076019 493.672546,161.896927 494.212524,159.716354 
	C493.521301,158.053558 492.158295,158.236053 490.212006,158.571320 
z"/>
<path fill="#000000" opacity="1.000000" stroke="none" 
	d="
M237.227203,133.205368 
	C248.354935,123.283745 260.677155,117.485641 275.621979,118.672234 
	C276.447876,118.737808 277.334167,118.827866 278.110901,118.612648 
	C296.120972,113.622566 310.166107,121.677803 323.392487,132.367493 
	C325.459930,134.038422 327.468445,135.820801 329.277924,137.762497 
	C331.504120,140.151352 333.521149,141.622971 337.351898,141.261780 
	C342.469055,140.779312 345.572021,144.756180 347.046204,149.210373 
	C350.529297,159.734726 350.041412,170.275818 345.363342,180.350357 
	C342.821442,185.824524 337.408051,188.239380 332.202911,190.493271 
	C326.385956,193.012070 325.220551,196.848709 330.257904,200.520782 
	C334.568634,203.663177 336.738831,207.947021 339.218628,212.163086 
	C342.274261,217.358063 345.454468,222.439056 349.957794,226.487091 
	C352.718414,228.968628 352.428894,231.129593 350.228058,233.741562 
	C344.589508,240.433395 337.656158,245.596802 330.645477,250.685226 
	C328.393463,252.319778 326.583496,251.640442 325.127350,249.553619 
	C320.010223,242.220291 311.570526,238.391464 306.090332,231.377319 
	C303.712372,228.333771 301.062073,230.538605 300.454742,232.976547 
	C298.634979,240.281097 293.719208,241.912140 286.971619,243.633972 
	C277.068848,246.160934 269.394623,244.467972 262.512939,237.333542 
	C260.033356,234.762894 254.904205,235.295883 251.346451,238.482574 
	C247.954834,241.520432 245.552856,245.344788 243.229401,249.195618 
	C241.990265,251.249329 240.583221,252.198746 238.389984,250.639313 
	C230.625717,245.118759 221.801147,241.442169 213.737289,236.436066 
	C210.216568,234.250381 209.617676,232.062134 212.693283,228.973053 
	C219.453384,222.183319 224.775299,214.366379 228.831284,205.685425 
	C229.393234,204.482681 229.890976,203.081299 231.395828,202.849014 
	C233.837708,202.472092 234.983353,200.982834 234.773880,198.725113 
	C234.536804,196.169617 232.186066,193.989792 230.419571,193.970612 
	C220.640350,193.864578 216.493484,186.721161 212.628769,179.840271 
	C207.146835,170.080093 208.072937,159.555099 211.582565,149.379105 
	C213.210358,144.659409 217.532501,141.404495 222.436127,141.983810 
	C228.079468,142.650543 231.041946,139.790115 234.183197,136.314011 
	C235.075638,135.326447 236.040771,134.404587 237.227203,133.205368 
M304.987183,178.692032 
	C304.733887,180.888062 302.029083,180.561111 301.206818,182.213943 
	C308.920502,186.779556 310.174622,186.204132 311.755188,177.536346 
	C312.202545,175.083099 312.718414,172.641998 313.225677,170.200073 
	C315.116089,161.099808 312.056152,152.940918 305.190826,148.805084 
	C297.838226,144.375687 292.076508,145.150116 283.968109,151.905563 
	C281.937225,153.597549 280.480774,153.835510 278.442078,151.870483 
	C272.842255,146.473022 264.791229,145.348541 257.855621,148.732513 
	C247.308807,153.878448 243.791946,163.416504 247.533920,176.725952 
	C249.983963,185.440247 252.534393,186.438599 260.343475,181.740158 
	C252.006729,178.144775 249.186005,174.127548 251.273193,168.318665 
	C252.214508,165.698868 253.594437,163.194412 255.062531,160.814774 
	C258.314819,155.543076 262.559937,153.815430 267.499298,155.492416 
	C273.431213,157.506378 277.801422,163.090530 276.728729,168.515198 
	C276.168121,171.350037 278.105530,173.018326 278.354126,175.377243 
	C278.453033,176.315659 280.485504,176.707626 281.896118,175.502060 
	C281.483337,174.702011 281.065430,173.892029 280.553436,172.899689 
	C283.472656,172.503021 284.383972,171.059753 283.954895,168.169479 
	C282.884583,160.960266 286.741455,155.588135 293.145477,154.877396 
	C299.572968,154.164047 304.244476,158.544861 304.379181,166.011719 
	C303.442230,166.189484 301.764465,165.652878 301.684540,166.619522 
	C301.309082,171.159729 297.352753,172.045227 293.992279,174.027161 
	C296.009766,174.458542 297.713623,173.011841 299.054504,174.531403 
	C298.099152,177.350998 295.424255,176.428635 293.680725,176.961212 
	C297.299255,181.063385 301.189148,178.752472 304.987183,178.692032 
M297.621185,226.302750 
	C298.626251,225.422104 300.646088,225.243622 299.654877,222.428986 
	C291.522614,222.804214 283.339783,226.029678 274.934387,224.223679 
	C278.260559,221.965744 282.145996,222.593582 285.679016,221.635666 
	C287.738953,221.077148 290.571228,221.624054 290.193695,217.831863 
	C290.035492,216.242462 292.161530,215.226517 292.899048,216.544540 
	C295.995392,222.078049 299.711853,218.521561 303.184326,217.556107 
	C305.107483,217.021439 307.228271,216.099014 306.375580,213.409409 
	C305.457794,210.514526 303.314972,211.631989 301.424316,212.205429 
	C294.242004,214.383850 286.947754,216.048126 279.476257,216.833603 
	C277.653137,217.025269 275.649933,217.888458 273.265991,215.599594 
	C279.181030,213.263458 286.822754,215.204315 288.566864,206.951248 
	C290.736053,208.790314 290.113922,211.887955 293.034119,211.574295 
	C296.413910,211.211273 299.701508,210.706375 300.658417,206.454819 
	C303.252472,208.686615 305.496613,208.063965 307.506226,206.337952 
	C309.238312,204.850281 308.030060,203.160187 307.210663,201.843842 
	C305.439331,198.998260 303.451202,201.321472 301.559906,201.870453 
	C293.269073,204.277130 285.008575,206.797333 276.667328,209.014099 
	C274.904572,209.482590 272.531738,210.263794 270.682434,207.790222 
	C274.340210,205.814499 279.574677,206.821426 280.646942,201.544601 
	C281.972931,202.669220 283.635681,200.750305 284.014008,201.174774 
	C288.096832,205.755676 291.195831,201.085785 294.551331,200.087906 
	C296.389435,199.541275 299.048920,198.792984 297.687347,195.596603 
	C296.349579,192.456131 294.239441,193.255905 291.926849,194.269455 
	C281.618530,198.787308 270.821594,200.148224 259.678802,199.065201 
	C258.116974,198.913406 256.271759,199.425262 255.053955,197.326508 
	C257.634033,193.393661 262.808411,192.619141 266.461670,188.481857 
	C263.306152,189.007553 261.929596,186.139786 259.635010,186.423553 
	C253.700378,187.157486 248.425888,189.660873 244.122772,193.822662 
	C240.745529,197.089005 237.363510,200.185532 238.638367,206.031418 
	C239.517609,210.063309 241.586456,212.593185 245.531860,211.546982 
	C246.765778,211.219803 248.020920,210.353195 249.716110,212.191818 
	C246.250443,215.221069 249.542175,218.420425 249.703125,221.755524 
	C251.010132,222.519989 252.948792,221.413742 253.825821,223.663727 
	C251.354630,226.287109 252.201538,229.328552 253.424423,232.401611 
	C255.025223,233.261383 256.695618,232.762238 258.326355,232.631882 
	C266.123962,232.008621 273.910645,231.215149 281.717224,230.752838 
	C285.395020,230.535049 288.523895,229.966690 289.429688,224.803574 
	C291.565216,230.984924 294.434448,227.596024 297.621185,226.302750 
M304.578644,190.037079 
	C306.529327,192.330994 305.305786,194.648285 304.349396,197.351212 
	C305.615967,196.864288 306.494507,196.471985 307.406433,196.186249 
	C310.084839,195.347031 312.811066,195.124069 314.706879,197.582169 
	C316.620026,200.062744 315.834290,202.555023 313.994293,204.861130 
	C313.399475,205.606659 312.490723,206.778534 312.715332,207.394409 
	C314.577637,212.500870 311.267944,215.155502 308.445312,218.581818 
	C306.625763,220.790497 303.428070,223.987595 305.479523,227.236328 
	C307.129974,229.850098 310.292938,231.823135 313.850830,230.150558 
	C314.875122,228.209869 313.020782,226.234085 314.632660,224.629257 
	C316.423889,223.829041 317.435883,226.363251 319.131104,225.774963 
	C322.074646,223.444580 318.179047,221.713150 318.590942,219.671082 
	C320.125122,218.123978 321.808014,220.685501 323.270233,219.347977 
	C324.351227,217.150757 322.610626,214.332138 324.901764,212.154938 
	C326.034790,212.684891 327.163025,213.212585 328.267334,213.729111 
	C331.493439,208.586517 331.318451,208.686996 328.478973,203.742004 
	C322.587036,193.481033 312.840576,189.339676 302.105988,186.663345 
	C300.907928,186.364624 299.837769,186.653046 299.409332,188.121750 
	C300.996948,188.645874 302.793274,188.330307 304.578644,190.037079 
M339.055695,167.069580 
	C337.857635,168.914169 337.129639,170.870438 337.193695,173.136475 
	C337.236816,174.661697 336.857056,175.907410 335.052612,176.612961 
	C330.573944,178.364090 328.307739,182.763336 329.032684,187.681900 
	C333.931732,187.689178 339.551483,184.030914 341.814148,179.361084 
	C338.284790,182.155685 334.846313,185.117645 329.936615,185.686310 
	C334.371948,180.647858 342.042358,178.427979 342.661774,170.339569 
	C343.539673,158.875595 341.626099,152.899719 335.489044,152.326889 
	C338.332489,156.908295 340.515106,161.265198 339.055695,167.069580 
M223.980957,185.143494 
	C224.509964,185.889771 225.666077,186.444473 224.630753,187.811966 
	C221.842010,187.260544 220.945435,183.958389 218.274200,183.230698 
	C220.672211,185.724899 222.011429,189.533585 226.280579,189.878815 
	C227.203735,183.627777 221.887070,173.494858 216.395721,171.194870 
	C216.854843,167.872070 219.041412,164.897522 218.898346,161.306747 
	C218.767319,158.018112 224.491119,156.179977 221.358200,151.779404 
	C217.277328,155.007858 215.481415,159.133209 214.998718,164.218033 
	C214.197617,172.657104 216.755798,179.494125 223.980957,185.143494 
M282.765381,191.808578 
	C283.904572,192.026962 285.041260,192.259506 286.183563,192.460266 
	C287.726105,192.731415 289.386017,192.726974 290.194000,191.253769 
	C291.028595,189.732117 290.059570,188.498932 288.777100,187.561127 
	C286.937866,189.561127 285.454926,192.304855 281.833862,190.158325 
	C283.036224,187.129074 288.224060,187.003357 286.304596,182.929138 
	C287.694244,182.071564 289.315430,184.458710 289.919556,182.011353 
	C285.328064,178.184616 283.402496,178.474808 280.490906,183.432327 
	C277.722870,178.454315 276.169403,178.032318 271.951172,181.111816 
	C273.652283,186.207153 278.286194,188.505432 282.765381,191.808578 
M271.552673,236.853516 
	C284.146332,239.045120 291.717590,237.466858 295.228699,231.547256 
	C290.627045,232.388809 286.345337,233.317703 282.018005,233.917938 
	C278.425842,234.416199 274.769623,234.437119 271.162445,234.850113 
	C269.467041,235.044220 268.981781,235.810501 271.552673,236.853516 
M270.482666,196.458954 
	C272.391693,196.166397 274.300720,195.873840 277.665588,195.358185 
	C271.837708,193.648483 267.700165,195.211533 262.339783,195.678116 
	C265.532288,197.065750 267.679474,196.297150 270.482666,196.458954 
M257.021820,169.102127 
	C256.880280,169.053619 256.691772,168.926315 256.608673,168.975830 
	C256.495697,169.043137 256.409454,169.243622 256.404114,169.390366 
	C256.231354,174.122681 259.522217,174.127869 263.158386,174.507004 
	C262.523621,170.749191 258.818085,171.424942 257.021820,169.102127 
z"/>
<path fill="#000000" opacity="1.000000" stroke="none" 
	d="
M136.331177,223.812012 
	C135.449402,220.244568 134.675171,217.100723 133.900955,213.956894 
	C130.812469,221.814148 125.764496,227.649323 120.546761,233.663513 
	C117.768585,236.865753 116.552895,240.749710 111.630142,242.203995 
	C101.874512,245.085968 89.364082,246.278244 81.839699,234.646118 
	C77.936623,228.612259 70.226418,225.434402 67.755829,217.642731 
	C64.926170,222.620605 64.254807,227.612793 64.241547,232.746384 
	C64.233376,235.910721 64.300072,239.075439 64.273026,242.239487 
	C64.230240,247.244202 62.667461,248.650024 57.785957,247.311569 
	C52.823154,245.950821 48.085537,243.760773 43.115425,242.436249 
	C30.675917,239.121124 30.219391,239.072906 34.772041,227.121216 
	C39.115177,215.719528 38.610992,204.646530 36.195992,192.951706 
	C34.161224,183.098175 30.473984,173.477890 30.874760,163.138565 
	C31.031391,159.097733 31.474361,155.163177 32.843685,151.379807 
	C34.792648,145.994934 40.124687,142.076157 45.624184,143.001984 
	C49.542645,143.661636 51.589466,141.881424 53.639774,139.450867 
	C62.362160,129.110870 73.312363,121.742775 86.679924,120.606049 
	C100.957909,119.391899 115.785385,115.340881 129.582428,123.795746 
	C137.007416,128.345795 144.071487,133.254807 150.015305,139.655991 
	C151.513168,141.269104 152.892715,142.769135 155.503906,142.339737 
	C160.623764,141.497757 163.677368,144.506546 165.751678,148.610672 
	C167.649933,152.366440 168.316589,156.459244 168.393280,160.698700 
	C168.504242,166.831177 167.282455,172.943207 168.264847,179.092880 
	C168.583313,181.086502 168.051727,183.112549 167.098267,184.900101 
	C158.028656,201.903870 160.396149,218.603500 168.235672,235.240677 
	C171.129639,241.382309 170.777634,242.184311 164.837708,245.278275 
	C157.537430,249.080841 149.273499,250.030975 141.665039,252.981384 
	C138.703629,254.129745 137.645111,252.091782 137.553482,249.168320 
	C137.292892,240.853928 136.825012,232.546066 136.331177,223.812012 
M127.557312,168.341309 
	C129.807816,170.028473 132.366516,171.446930 131.334518,175.081284 
	C129.381882,181.957886 124.678802,185.018845 117.547569,184.672607 
	C118.409637,189.539993 121.435196,192.362686 123.738518,195.635956 
	C129.611115,187.409683 132.097733,178.353668 133.411118,168.857590 
	C134.575226,160.440781 131.323883,153.301849 124.356339,149.390244 
	C117.593857,145.593719 112.198120,146.406174 104.935822,152.763428 
	C102.155006,155.197693 100.429718,154.381165 98.287270,152.016434 
	C93.568588,146.808182 87.342239,147.268524 81.553345,148.921295 
	C75.518776,150.644196 70.022064,154.159454 68.444077,160.786179 
	C66.453682,169.144806 67.547508,177.383575 72.047073,184.869324 
	C74.590965,189.101471 77.099068,193.317230 78.701759,199.452194 
	C80.043213,193.075333 86.311134,190.894562 86.240891,185.072205 
	C72.466309,181.683731 71.133232,177.724442 72.452354,171.391953 
	C73.938591,164.257141 80.983406,156.488495 86.528969,157.014847 
	C89.931274,157.337799 92.538109,159.346252 95.190422,161.546097 
	C99.886734,165.441254 98.462059,170.417542 98.094353,175.597427 
	C100.885330,175.016724 103.224892,174.529938 105.468430,174.063126 
	C106.062424,161.524796 108.941505,156.997314 116.121422,156.959671 
	C122.362633,156.926956 126.550339,161.174911 126.319702,168.140915 
	C124.275597,168.577759 123.176041,166.712631 120.800278,165.787674 
	C122.964241,168.309891 124.365334,170.627060 121.947342,172.787689 
	C120.283020,174.274841 118.123604,175.207932 116.107925,176.435883 
	C117.953987,177.272339 119.805199,175.213379 121.529976,177.026398 
	C120.282608,179.332993 117.706703,178.972458 115.147240,179.793777 
	C119.495758,182.003738 123.078659,182.554947 126.472946,179.678497 
	C126.989944,179.240356 127.050644,178.263779 127.380814,177.379898 
	C125.778885,177.245148 125.018661,179.605652 123.301704,177.823029 
	C124.404488,174.600189 127.355125,171.858627 127.557312,168.341309 
M91.358185,223.403244 
	C94.843422,223.555328 98.327301,223.773438 101.814194,223.844543 
	C107.548759,223.961487 113.059502,223.201569 118.035416,219.945602 
	C121.370369,217.763428 122.715683,215.003723 123.076462,210.912888 
	C123.951965,200.985596 119.571564,193.150848 114.009148,185.783066 
	C110.186485,180.719681 105.453461,181.228561 102.490845,186.515442 
	C99.583443,181.605545 96.250786,180.706909 92.172829,183.771103 
	C90.691193,184.884415 89.731659,186.417175 88.705353,187.956573 
	C85.150078,193.289276 81.719666,198.607880 78.912895,204.457947 
	C75.989983,210.550110 76.554192,216.297531 82.212143,219.929565 
	C84.774132,221.574203 87.653854,222.382019 91.358185,223.403244 
M154.208359,171.792816 
	C151.979813,160.464020 146.526749,150.296677 141.023148,148.566071 
	C144.292755,157.884186 152.281830,165.033676 151.337814,175.607819 
	C148.861069,174.792099 148.955994,172.911758 148.511841,171.429138 
	C146.770996,165.618134 143.856522,160.394623 140.494659,155.412720 
	C139.660492,154.176575 138.920792,151.819901 136.813477,153.077652 
	C134.209000,154.632156 136.498215,156.424438 137.382156,157.622314 
	C144.194061,166.853546 144.733475,176.281158 139.914871,186.729950 
	C137.047348,192.948029 135.447601,199.847198 136.672348,207.062225 
	C141.189178,206.050766 141.218994,206.063126 142.652603,202.606155 
	C142.977463,201.822830 143.135864,200.890457 144.062073,200.726166 
	C148.752960,199.893997 152.486496,197.928207 153.173431,192.903259 
	C156.223221,192.861938 155.580017,196.495926 157.991241,196.496933 
	C164.958008,188.582245 166.299835,168.968597 160.502808,160.035767 
	C160.222183,164.345718 163.324219,168.567093 160.930832,173.008530 
	C158.988342,167.840973 157.932724,162.517990 156.350769,157.356339 
	C154.786774,152.253250 152.994797,147.084824 146.846298,145.050797 
	C151.027390,154.455200 156.690643,163.317017 156.748047,174.091949 
	C154.791229,174.175934 154.741913,173.207184 154.208359,171.792816 
M52.125977,204.547699 
	C54.309761,206.860657 55.366634,202.540756 57.758984,203.949936 
	C58.625362,205.628876 58.427525,208.525421 61.043728,209.597519 
	C64.618286,208.364380 65.376953,205.650940 64.614952,202.410080 
	C63.740105,198.689285 62.912472,194.906113 61.509205,191.370361 
	C57.141064,180.364075 57.526093,169.950989 64.383606,159.989777 
	C65.255745,158.722900 67.093208,157.141739 64.657043,154.701202 
	C60.761227,157.256958 58.316658,161.190109 55.680378,164.838882 
	C52.906300,168.678375 54.142899,173.907562 51.890255,179.529877 
	C51.156223,177.357300 50.842545,176.774109 50.770123,176.162338 
	C49.802773,167.991302 53.696842,161.759262 58.711723,155.888809 
	C59.816959,154.595001 62.808998,153.095566 60.542534,151.119736 
	C58.147049,149.031433 56.693737,152.105011 55.506344,153.563507 
	C50.880844,159.245132 48.269825,165.844467 47.375275,173.129715 
	C47.230328,174.310150 47.654411,175.947800 45.083538,176.233429 
	C43.871086,168.246277 47.264763,161.372635 50.142822,154.374710 
	C44.319027,160.141098 43.623817,168.084091 41.380032,175.526611 
	C38.784843,173.812500 40.403790,171.672394 39.479050,170.126923 
	C36.417850,180.938492 38.682831,191.219864 42.037537,201.539551 
	C43.715351,201.297058 45.799915,198.732330 46.590885,201.626999 
	C47.485905,204.902451 49.856049,203.690796 52.125977,204.547699 
M81.007240,222.544815 
	C78.442833,222.234756 79.885628,223.821106 80.142311,224.578125 
	C83.380165,234.126877 93.010048,239.085892 104.370491,237.110550 
	C114.367775,235.372238 119.293274,230.694427 119.839569,222.407700 
	C116.015968,223.574127 115.331093,228.224136 111.315140,229.568497 
	C103.115555,232.313354 95.306152,231.432083 87.466843,228.557114 
	C86.355988,228.149719 85.066223,227.700378 85.088425,226.337463 
	C85.130333,223.764252 82.878395,223.775818 81.007240,222.544815 
M77.593994,172.648193 
	C78.970123,177.104218 82.961464,177.023575 86.280632,178.146713 
	C85.241631,173.674240 80.119820,174.023773 78.194778,170.619003 
	C78.023705,170.316437 77.554413,171.446457 77.593994,172.648193 
M106.444931,227.366348 
	C103.313118,227.366348 100.181297,227.366348 97.049484,227.366348 
	C100.387177,228.450745 103.717140,229.611328 106.444931,227.366348 
z"/>
<path fill="#000000" opacity="1.000000" stroke="none" 
	d="
M305.320801,177.844116 
	C304.395691,175.729599 306.478119,174.085739 306.480835,171.607819 
	C304.845184,173.096497 304.408691,175.623581 301.522156,175.811523 
	C301.934265,172.348587 305.235291,170.141296 304.914734,166.338440 
	C310.454803,170.369492 310.591949,172.796921 305.320801,177.844116 
z"/>
<path fill="#000000" opacity="1.000000" stroke="none" 
	d="
M101.921158,193.746750 
	C99.140556,196.638580 97.373215,193.679153 95.670990,192.547836 
	C93.463440,191.080719 93.175041,188.609528 95.277939,184.826981 
	C95.765251,190.092957 100.460846,190.155457 101.921158,193.746750 
z"/>
<path fill="#000000" opacity="1.000000" stroke="none" 
	d="
M107.631882,193.202316 
	C106.377678,194.201538 105.420639,195.019974 104.369423,195.918961 
	C100.419952,190.191528 111.288513,190.314484 108.683136,185.101517 
	C110.908257,187.961426 110.856529,190.580963 107.631882,193.202316 
z"/>
</svg>